{"glyphs":{"0":{"ha":868,"x_min":0,"x_max":0,"o":"m 174 601 b 86 694 174 653 135 694 b 0 601 39 694 0 653 l 0 267 b 86 174 0 215 39 174 b 174 267 135 174 174 215 z m 267 694 l 428 694 b 519 782 478 694 519 733 b 428 868 519 829 478 868 l 267 868 b 174 782 215 868 174 829 b 267 694 174 733 215 694 z m 428 174 l 267 174 b 174 86 215 174 174 135 b 267 0 174 39 215 0 l 428 0 b 519 86 478 0 519 39 b 428 174 519 135 478 174 z m 607 694 b 519 601 560 694 519 653 l 519 267 b 607 174 519 215 560 174 b 694 267 656 174 694 215 l 694 601 b 607 694 694 653 656 694 z "},"1":{"ha":694,"x_min":0,"x_max":0,"o":"m 435 174 b 349 267 388 174 349 215 l 349 775 b 256 868 349 826 307 868 l 94 868 b 1 782 43 868 1 829 b 89 694 1 733 40 694 b 175 601 136 694 175 653 l 175 267 b 89 174 175 215 136 174 b 1 86 40 174 1 135 b 94 0 1 39 43 0 l 429 0 b 522 86 481 0 522 39 b 435 174 522 135 483 174 z "},"2":{"ha":868,"x_min":0,"x_max":0,"o":"m 608 522 b 696 608 656 522 696 561 b 608 694 696 656 656 694 b 521 608 561 694 521 656 b 608 522 521 561 561 522 z m 93 694 l 429 694 b 521 782 479 694 521 733 b 429 868 521 829 479 868 l 93 868 b 0 782 42 868 0 829 b 93 694 0 733 42 694 z m 603 174 l 268 174 b 88 347 136 174 213 347 b 0 254 40 347 0 306 l 0 92 b 93 0 0 42 42 0 l 603 0 b 696 86 654 0 696 39 b 603 174 696 135 654 174 z m 429 522 l 268 522 b 175 435 217 522 175 482 b 268 347 175 386 217 347 l 429 347 b 521 435 479 347 521 386 b 429 522 521 482 479 522 z "},"3":{"ha":868,"x_min":0,"x_max":0,"o":"m 608 522 b 694 608 656 522 694 561 b 608 694 694 656 656 694 b 521 608 560 694 521 656 b 608 522 521 561 560 522 z m 608 347 b 428 174 482 347 560 174 l 93 174 b 0 86 42 174 0 135 b 93 0 0 39 42 0 l 601 0 b 694 92 653 0 694 42 l 694 254 b 608 347 694 306 656 347 z m 93 694 l 428 694 b 521 782 479 694 521 733 b 428 868 521 829 479 868 l 93 868 b 0 782 42 868 0 829 b 93 694 0 733 42 694 z m 428 522 l 267 522 b 174 435 215 522 174 482 b 267 347 174 386 215 347 l 428 347 b 521 435 479 347 521 386 b 428 522 521 482 479 522 z "},"4":{"ha":868,"x_min":0,"x_max":0,"o":"m 258 522 b 344 614 306 522 344 564 l 344 775 b 258 868 344 826 306 868 b 172 775 211 868 172 826 l 172 614 b 258 522 172 564 211 522 z m 600 347 l 265 347 b 85 522 132 347 210 522 b -1 429 38 522 -1 479 l -1 267 b 90 174 -1 215 40 174 l 251 174 b 432 0 383 174 306 0 b 606 174 556 0 483 174 b 693 261 654 174 693 213 b 600 347 693 308 651 347 z "},"5":{"ha":868,"x_min":0,"x_max":0,"o":"m 93 347 l 428 347 b 521 435 479 347 521 386 b 428 522 521 482 479 522 l 267 522 b 175 608 217 522 175 561 b 267 694 175 656 217 694 l 428 694 b 521 782 479 694 521 733 b 428 868 521 829 479 868 l 93 868 b 0 775 42 868 0 826 l 0 440 b 93 347 0 389 42 347 z m 428 174 l 93 174 b 0 86 42 174 0 135 b 93 0 0 39 42 0 l 428 0 b 521 86 479 0 521 39 b 428 174 521 135 479 174 z m 608 347 b 521 261 560 347 521 308 b 608 174 521 213 560 174 b 694 261 656 174 694 213 b 608 347 694 308 656 347 z "},"6":{"ha":868,"x_min":0,"x_max":0,"o":"m 267 693 l 428 693 b 521 781 479 693 521 732 b 428 867 521 828 479 867 l 267 867 b 174 781 215 867 174 828 b 267 693 174 732 215 693 z m 267 346 l 428 346 b 521 433 479 346 521 385 b 428 521 521 481 479 521 l 267 521 b 86 693 133 521 211 693 b 0 600 39 693 0 651 l 0 265 b 86 172 0 214 39 172 b 267 346 211 172 133 346 z m 607 346 b 521 260 560 346 521 307 b 607 172 521 211 560 172 b 694 260 656 172 694 211 b 607 346 694 307 656 346 z m 428 172 l 267 172 b 174 85 215 172 174 133 b 267 -1 174 38 215 -1 l 428 -1 b 521 85 479 -1 521 38 b 428 172 521 133 479 172 z "},"7":{"ha":868,"x_min":0,"x_max":0,"o":"m 260 349 b 174 256 213 349 174 307 l 174 93 b 260 0 174 42 213 0 b 347 93 308 0 347 42 l 347 256 b 260 349 347 307 308 349 z m 433 522 b 347 435 386 522 347 483 b 433 349 347 388 386 349 b 521 435 482 349 521 388 b 433 522 521 483 482 522 z m 601 869 l 93 869 b 0 782 42 869 0 829 b 93 694 0 733 42 694 l 428 694 b 608 522 560 694 483 522 b 694 615 656 522 694 564 l 694 776 b 601 869 694 828 653 869 z "},"8":{"ha":868,"x_min":0,"x_max":0,"o":"m 268 694 l 429 694 b 522 782 479 694 522 733 b 429 869 522 829 479 869 l 268 869 b 175 782 217 869 175 829 b 268 694 175 733 217 694 z m 608 522 b 696 608 657 522 696 561 b 608 694 696 656 657 694 b 522 608 561 694 522 656 b 608 522 522 561 561 522 z m 88 522 b 175 608 136 522 175 561 b 88 694 175 656 136 694 b 1 608 40 694 1 656 b 88 522 1 561 40 522 z m 429 522 l 268 522 b 175 435 217 522 175 483 b 268 349 175 388 217 349 l 429 349 b 522 435 479 349 522 388 b 429 522 522 483 479 522 z m 608 349 b 522 261 561 349 522 308 b 608 174 522 214 561 174 b 696 261 657 174 696 214 b 608 349 696 308 657 349 z m 88 349 b 1 261 40 349 1 308 b 88 174 1 214 40 174 b 175 261 136 174 175 214 b 88 349 175 308 136 349 z m 429 174 l 268 174 b 175 88 217 174 175 135 b 268 0 175 39 217 0 l 429 0 b 522 88 479 0 522 39 b 429 174 522 135 479 174 z "},"9":{"ha":868,"x_min":0,"x_max":0,"o":"m 88 694 b 0 608 39 694 0 656 b 88 522 0 561 39 522 b 174 608 135 522 174 561 b 88 694 174 656 135 694 z m 267 694 l 428 694 b 521 782 479 694 521 733 b 428 869 521 829 479 869 l 267 869 b 174 782 217 869 174 829 b 267 694 174 733 217 694 z m 608 694 b 428 522 483 694 560 522 l 267 522 b 174 435 217 522 174 483 b 267 349 174 388 217 349 l 428 349 b 608 174 560 349 483 174 b 694 267 656 174 694 215 l 694 601 b 608 694 694 653 656 694 z m 428 174 l 267 174 b 174 88 217 174 174 135 b 267 0 174 39 217 0 l 428 0 b 521 88 479 0 521 39 b 428 174 521 135 479 174 z "}," ":{"ha":694,"x_min":0,"x_max":0,"o":""},"!":{"ha":347,"x_min":0,"x_max":0,"o":"m 86 174 b 0 88 39 174 0 135 b 86 0 0 39 39 0 b 174 88 135 0 174 39 b 86 174 174 135 135 174 z m 86 1042 b 0 950 39 1042 0 1000 l 0 440 b 86 347 0 389 39 347 b 174 440 135 347 174 389 l 174 950 b 86 1042 174 1000 135 1042 z "},"\"":{"ha":694,"x_min":0,"x_max":0,"o":"m 86 867 b 0 774 39 867 0 825 l 0 613 b 86 521 0 563 39 521 b 174 613 135 521 174 563 l 174 774 b 86 867 174 825 135 867 z m 433 867 b 346 774 385 867 346 825 l 346 613 b 433 521 346 563 385 521 b 521 613 481 521 521 563 l 521 774 b 433 867 521 825 481 867 z "},"#":{"ha":1042,"x_min":0,"x_max":0,"o":"m 781 347 b 694 435 733 347 694 386 b 867 608 694 558 867 486 b 694 782 867 731 694 657 b 607 868 694 829 656 868 b 433 694 483 868 558 694 b 260 868 310 694 383 868 b 88 694 138 868 210 694 b 0 608 39 694 0 656 b 174 435 0 486 174 558 b 0 261 174 310 0 383 b 174 86 0 136 174 211 b 260 0 174 39 213 0 b 433 174 383 0 310 174 b 607 0 558 174 483 0 b 781 174 732 0 658 174 b 867 261 828 174 867 213 b 781 347 867 308 828 347 z m 433 347 b 346 435 386 347 346 386 b 433 522 346 482 386 522 b 521 435 482 522 521 482 b 433 347 521 386 482 347 z "},"$":{"ha":868,"x_min":0,"x_max":0,"o":"m 93 347 l 254 347 b 439 522 385 347 307 522 l 601 522 b 694 608 653 522 694 561 b 521 782 694 731 521 657 b 433 868 521 829 482 868 b 260 694 310 868 382 694 b 86 522 136 694 211 522 b 0 435 39 522 0 482 b 93 347 0 386 42 347 z m 601 347 l 439 347 b 254 174 306 347 385 174 l 93 174 b 0 86 42 174 0 135 b 93 0 0 39 42 0 l 254 0 b 346 -87 304 0 346 -39 b 433 -174 346 -135 386 -174 b 521 -81 482 -174 521 -132 l 521 81 b 694 261 521 214 694 136 b 601 347 694 308 653 347 z "},"'":{"ha":347,"x_min":0,"x_max":0,"o":"m 86 867 b 0 774 39 867 0 825 l 0 613 b 86 521 0 563 39 521 b 174 613 135 521 174 563 l 174 774 b 86 867 174 825 135 867 z "},"(":{"ha":521,"x_min":0,"x_max":0,"o":"m 261 174 b 174 86 213 174 174 135 b 261 0 174 39 213 0 b 347 86 308 0 347 39 b 261 174 347 135 308 174 z m 261 694 b 347 781 308 694 347 733 b 261 868 347 829 308 868 b 174 781 213 868 174 829 b 261 694 174 733 213 694 z m 174 601 b 88 694 174 653 135 694 b 0 601 39 694 0 653 l 0 267 b 88 174 0 215 39 174 b 174 267 135 174 174 215 z "},")":{"ha":521,"x_min":0,"x_max":0,"o":"m 88 694 b 175 782 135 694 175 733 b 88 868 175 829 135 868 b 0 782 39 868 0 829 b 88 694 0 733 39 694 z m 261 694 b 175 601 213 694 175 653 l 175 267 b 261 174 175 215 213 174 b 347 267 308 174 347 215 l 347 601 b 261 694 347 653 308 694 z m 88 174 b 0 86 39 174 0 135 b 88 0 0 39 39 0 b 175 86 135 0 175 39 b 88 174 175 135 135 174 z "},"*":{"ha":694,"x_min":0,"x_max":0,"o":"m 88 694 b 174 782 135 694 174 733 b 88 868 174 829 135 868 b 0 782 39 868 0 829 b 88 694 0 733 39 694 z m 433 694 b 521 782 482 694 521 733 b 433 868 521 829 482 868 b 347 782 386 868 347 829 b 433 694 347 733 386 694 z m 88 522 b 0 435 39 522 0 482 b 88 347 0 386 39 347 b 174 435 135 347 174 386 b 88 522 174 482 135 522 z m 261 694 b 174 608 213 694 174 656 b 261 522 174 561 213 522 b 347 608 308 522 347 561 b 261 694 347 656 308 694 z m 433 522 b 347 435 386 522 347 482 b 433 347 347 386 386 347 b 521 435 482 347 521 386 b 433 522 521 482 482 522 z "},"+":{"ha":694,"x_min":0,"x_max":0,"o":"m 435 522 b 347 608 386 522 347 561 b 261 694 347 656 308 694 b 175 608 214 694 175 656 b 88 522 175 561 136 522 b 0 435 40 522 0 482 b 88 347 0 386 40 347 b 175 261 136 347 175 308 b 261 174 175 213 214 174 b 347 261 308 174 347 213 b 435 347 347 308 386 347 b 521 435 482 347 521 386 b 435 522 521 482 482 522 z "},",":{"ha":521,"x_min":0,"x_max":0,"o":"m 86 1 b 0 -86 39 1 0 -37 b 86 -172 0 -133 39 -172 b 174 -86 135 -172 174 -133 b 86 1 174 -37 135 1 z m 260 175 b 174 88 213 175 174 136 b 260 1 174 40 213 1 b 346 88 307 1 346 40 b 260 175 346 136 307 175 z "},"-":{"ha":694,"x_min":0,"x_max":0,"o":"m 428 522 l 93 522 b 0 435 42 522 0 482 b 93 347 0 386 42 347 l 428 347 b 521 435 479 347 521 386 b 428 522 521 482 479 522 z "},".":{"ha":347,"x_min":0,"x_max":0,"o":"m 88 174 b 0 86 39 174 0 135 b 88 0 0 39 39 0 b 174 86 135 0 174 39 b 88 174 174 135 135 174 z "},"/":{"ha":1042,"x_min":0,"x_max":0,"o":"m 435 522 b 347 435 386 522 347 483 b 435 349 347 388 386 349 b 521 435 482 349 521 388 b 435 522 521 483 482 522 z m 261 349 b 175 261 214 349 175 308 b 261 174 175 214 214 174 b 347 261 308 174 347 214 b 261 349 347 308 308 349 z m 88 174 b 0 88 40 174 0 135 b 88 0 0 39 40 0 b 175 88 135 0 175 39 b 88 174 175 135 135 174 z m 608 694 b 521 608 561 694 521 656 b 608 522 521 561 561 522 b 696 608 656 522 696 561 b 608 694 696 656 656 694 z m 782 869 b 696 782 735 869 696 829 b 782 694 696 733 735 694 b 868 782 829 694 868 733 b 782 869 868 829 829 869 z "},":":{"ha":347,"x_min":0,"x_max":0,"o":"m 86 349 b 0 261 39 349 0 308 b 86 174 0 214 39 174 b 172 261 133 174 172 214 b 86 349 172 308 133 349 z m 86 522 b 172 608 133 522 172 561 b 86 694 172 656 133 694 b 0 608 39 694 0 656 b 86 522 0 561 39 522 z "},";":{"ha":347,"x_min":0,"x_max":0,"o":"m 88 522 b 174 608 135 522 174 561 b 88 694 174 656 135 694 b 0 608 39 694 0 656 b 88 522 0 561 39 522 z m 88 349 b 0 256 39 349 0 307 l 0 93 b 88 0 0 42 39 0 b 174 93 135 0 174 42 l 174 256 b 88 349 174 307 135 349 z "},"<":{"ha":694,"x_min":0,"x_max":0,"o":"m 433 174 b 347 88 386 174 347 135 b 433 0 347 39 386 0 b 521 88 482 0 521 39 b 433 174 521 135 482 174 z m 261 522 b 347 608 308 522 347 561 b 261 694 347 656 308 694 b 174 608 213 694 174 656 b 261 522 174 561 213 522 z m 433 694 b 521 782 482 694 521 733 b 433 869 521 829 482 869 b 347 782 386 869 347 829 b 433 694 347 733 386 694 z m 261 349 b 174 261 213 349 174 308 b 261 174 174 214 213 174 b 347 261 308 174 347 214 b 261 349 347 308 308 349 z m 88 522 b 0 435 39 522 0 483 b 88 349 0 388 39 349 b 174 435 135 349 174 388 b 88 522 174 483 135 522 z "},"=":{"ha":694,"x_min":0,"x_max":0,"o":"m 428 349 l 93 349 b 0 261 42 349 0 308 b 93 174 0 214 42 174 l 428 174 b 521 261 479 174 521 214 b 428 349 521 308 479 349 z m 93 522 l 428 522 b 521 608 479 522 521 561 b 428 694 521 656 479 694 l 93 694 b 0 608 42 694 0 656 b 93 522 0 561 42 522 z "},">":{"ha":694,"x_min":0,"x_max":0,"o":"m 86 174 b 0 88 39 174 0 135 b 86 0 0 39 39 0 b 174 88 135 0 174 39 b 86 174 174 135 135 174 z m 86 694 b 174 782 135 694 174 733 b 86 869 174 829 135 869 b 0 782 39 869 0 829 b 86 694 0 733 39 694 z m 260 522 b 346 608 307 522 346 561 b 260 694 346 656 307 694 b 174 608 213 694 174 656 b 260 522 174 561 213 522 z m 260 349 b 174 261 213 349 174 308 b 260 174 174 214 213 174 b 346 261 307 174 346 214 b 260 349 346 308 307 349 z m 433 522 b 346 435 385 522 346 483 b 433 349 346 388 385 349 b 521 435 481 349 521 388 b 433 522 521 483 481 522 z "},"?":{"ha":868,"x_min":0,"x_max":0,"o":"m 521 782 b 428 869 521 829 479 869 l 93 869 b 0 782 42 869 0 829 b 93 694 0 733 42 694 l 428 694 b 521 782 479 694 521 733 z m 260 174 b 174 88 213 174 174 135 b 260 0 174 39 213 0 b 346 88 308 0 346 39 b 260 174 346 135 308 174 z m 428 522 l 267 522 b 174 435 215 522 174 483 b 267 349 174 388 215 349 l 428 349 b 521 435 479 349 521 388 b 428 522 521 483 479 522 z m 607 694 b 521 608 560 694 521 656 b 607 522 521 561 560 522 b 694 608 656 522 694 561 b 607 694 694 656 656 694 z "},"@":{"ha":1042,"x_min":0,"x_max":0,"o":"m 521 435 b 435 522 521 483 482 522 b 347 435 386 522 347 483 b 435 349 347 388 386 349 b 521 435 482 349 521 388 z m 782 694 b 603 869 658 694 735 869 l 268 869 b 175 782 217 869 175 829 b 268 694 175 733 217 694 l 429 694 b 608 522 558 694 485 522 b 696 435 657 522 696 483 b 521 261 696 313 521 385 b 614 174 521 214 563 174 l 775 174 b 868 267 826 174 868 215 l 868 601 b 782 694 868 653 829 694 z m 429 174 l 268 174 b 175 88 217 174 175 135 b 268 0 175 39 217 0 l 429 0 b 521 88 479 0 521 39 b 429 174 521 135 479 174 z m 175 601 b 88 694 175 653 136 694 b 0 601 40 694 0 653 l 0 267 b 88 174 0 215 40 174 b 175 267 136 174 175 215 z "},"A":{"ha":868,"x_min":0,"x_max":0,"o":"m 696 93 l 696 601 b 610 694 696 653 657 694 b 522 601 561 694 522 653 l 522 440 b 431 347 522 389 481 347 l 267 349 b 174 442 215 349 174 390 l 174 601 b 88 694 174 653 135 694 b 0 601 39 694 0 653 l 0 93 b 88 0 0 43 40 0 b 268 174 213 0 135 174 l 429 174 b 610 0 560 174 483 0 b 696 93 656 0 696 43 z m 267 694 l 431 694 b 522 782 481 694 522 735 b 431 869 522 829 481 869 l 267 869 b 174 782 215 869 174 829 b 267 694 174 735 215 694 z "},"B":{"ha":868,"x_min":0,"x_max":0,"o":"m 601 869 l 93 869 b 0 776 42 869 0 828 l 0 93 b 93 0 0 42 42 0 l 428 0 b 521 88 479 0 521 39 b 428 174 521 135 479 174 l 267 174 b 174 261 215 174 174 214 b 267 349 174 308 215 349 l 428 349 b 521 435 479 349 521 388 b 428 522 521 483 479 522 l 267 522 b 174 608 215 522 174 561 b 267 694 174 656 215 694 l 428 694 b 608 522 560 694 483 522 b 694 615 656 522 694 564 l 694 776 b 601 869 694 828 653 869 z m 608 349 b 521 261 560 349 521 308 b 608 174 521 214 560 174 b 694 261 656 174 694 214 b 608 349 694 308 656 349 z "},"C":{"ha":694,"x_min":0,"x_max":0,"o":"m 174 601 b 267 694 174 653 215 694 l 428 694 b 521 782 478 694 521 735 b 428 869 521 829 478 869 l 92 869 b 0 776 42 869 0 828 l 0 267 b 86 174 0 215 39 174 b 174 267 135 174 174 215 z m 428 174 l 267 174 b 174 88 215 174 174 135 b 267 0 174 39 215 0 l 428 0 b 521 88 478 0 521 39 b 428 174 521 135 478 174 z "},"D":{"ha":868,"x_min":0,"x_max":0,"o":"m 428 174 l 265 174 b 172 88 214 174 172 135 b 265 0 172 39 214 0 l 428 0 b 521 88 479 0 521 39 b 428 174 521 135 479 174 z m 172 601 b 265 694 172 653 214 694 l 428 694 b 521 782 479 694 521 735 b 428 869 521 829 479 869 l 93 869 b 0 776 42 869 0 828 l 0 267 b 86 174 0 215 39 174 b 172 267 133 174 172 215 z m 608 694 b 521 601 560 694 521 653 l 521 267 b 608 174 521 215 560 174 b 694 267 656 174 694 215 l 694 601 b 608 694 694 653 656 694 z "},"E":{"ha":694,"x_min":0,"x_max":0,"o":"m 428 174 l 267 174 b 174 88 215 174 174 135 b 267 0 174 39 215 0 l 428 0 b 519 88 478 0 519 39 b 428 174 519 135 478 174 z m 428 522 l 267 522 b 174 608 215 522 174 561 b 267 694 174 656 215 694 l 428 694 b 519 782 478 694 519 735 b 428 869 519 829 478 869 l 92 869 b 0 776 42 869 0 828 l 0 267 b 86 174 0 215 39 174 b 267 349 211 174 133 349 l 428 349 b 519 435 478 349 519 388 b 428 522 519 483 478 522 z "},"F":{"ha":694,"x_min":0,"x_max":0,"o":"m 428 522 l 267 522 b 174 608 215 522 174 561 b 267 694 174 656 215 694 l 428 694 b 521 782 479 694 521 735 b 428 869 521 829 479 869 l 93 869 b 0 776 42 869 0 828 l 0 93 b 86 0 0 42 39 0 b 174 93 135 0 174 42 l 174 256 b 267 349 174 307 215 349 l 428 349 b 521 435 479 349 521 388 b 428 522 521 483 479 522 z "},"G":{"ha":868,"x_min":0,"x_max":0,"o":"m 428 174 l 265 174 b 172 88 214 174 172 135 b 265 0 172 39 214 0 l 428 0 b 521 88 479 0 521 39 b 428 174 521 135 479 174 z m 172 601 b 265 694 172 653 214 694 l 428 694 b 521 782 479 694 521 735 b 428 869 521 829 479 869 l 93 869 b 0 776 42 869 0 828 l 0 267 b 86 174 0 215 39 174 b 172 267 133 174 172 215 z m 600 522 l 440 522 b 347 435 389 522 347 483 b 521 261 347 313 521 385 b 607 174 521 214 560 174 b 693 267 654 174 693 215 l 693 429 b 600 522 693 481 651 522 z "},"H":{"ha":868,"x_min":0,"x_max":0,"o":"m 607 869 b 521 776 560 869 521 828 l 521 615 b 428 522 521 564 479 522 l 267 522 b 174 615 215 522 174 564 l 174 776 b 86 869 174 828 135 869 b 0 776 39 869 0 828 l 0 93 b 86 0 0 42 39 0 b 174 93 135 0 174 42 l 174 256 b 267 349 174 307 215 349 l 428 349 b 521 256 479 349 521 307 l 521 93 b 607 0 521 42 560 0 b 694 93 656 0 694 42 l 694 776 b 607 869 694 828 656 869 z "},"I":{"ha":694,"x_min":0,"x_max":0,"o":"m 435 174 b 347 267 386 174 347 215 l 347 601 b 435 694 347 653 386 694 b 521 782 482 694 521 735 b 428 869 521 829 479 869 l 93 869 b 0 782 42 869 0 829 b 88 694 0 735 39 694 b 175 601 135 694 175 653 l 175 267 b 88 174 175 215 135 174 b 0 88 39 174 0 135 b 93 0 0 39 42 0 l 428 0 b 521 88 479 0 521 39 b 435 174 521 135 482 174 z "},"J":{"ha":868,"x_min":0,"x_max":0,"o":"m 86 349 b 0 261 39 349 0 308 b 86 174 0 214 39 174 b 174 261 135 174 174 214 b 86 349 174 308 135 349 z m 428 174 l 267 174 b 174 88 215 174 174 135 b 267 0 174 39 215 0 l 428 0 b 519 88 478 0 519 39 b 428 174 519 135 478 174 z m 601 869 l 440 869 b 347 782 389 869 347 829 b 433 694 347 735 386 694 b 519 601 482 694 519 653 l 519 267 b 607 174 519 215 560 174 b 694 267 656 174 694 215 l 694 776 b 601 869 694 828 653 869 z "},"K":{"ha":868,"x_min":0,"x_max":0,"o":"m 521 429 b 428 522 521 481 479 522 l 267 522 b 174 615 217 522 174 564 l 174 776 b 88 869 174 828 135 869 b 0 776 39 869 0 828 l 0 93 b 88 0 0 42 39 0 b 174 93 135 0 174 42 l 174 256 b 261 349 174 307 213 349 b 433 174 383 349 311 174 b 521 267 482 174 521 215 z m 608 869 b 521 776 560 869 521 828 l 521 615 b 608 522 521 564 560 522 b 694 615 656 522 694 564 l 694 776 b 608 869 694 828 656 869 z m 608 174 b 521 88 560 174 521 135 b 608 0 521 39 560 0 b 694 88 656 0 694 39 b 608 174 694 135 656 174 z "},"L":{"ha":694,"x_min":0,"x_max":0,"o":"m 174 776 b 88 869 174 828 135 869 b 0 776 39 869 0 828 l 0 268 b 88 175 0 217 39 175 b 174 268 135 175 174 217 z m 429 175 l 267 175 b 174 88 215 175 174 136 b 267 0 174 40 215 0 l 429 0 b 522 88 481 0 522 40 b 429 175 522 136 481 175 z "},"M":{"ha":1042,"x_min":0,"x_max":0,"o":"m 260 696 b 86 869 136 696 211 869 b 0 776 39 869 0 828 l 0 93 b 86 0 0 43 39 0 b 174 93 135 0 174 43 l 174 431 b 347 610 174 561 347 485 b 260 696 347 657 308 696 z m 781 869 b 607 696 658 869 732 696 b 521 610 560 696 521 657 b 694 431 521 485 694 560 l 694 93 b 781 0 694 43 733 0 b 868 93 829 0 868 43 l 868 776 b 781 869 868 828 829 869 z m 435 522 b 347 436 386 522 347 483 b 435 349 347 388 386 349 b 521 436 482 349 521 388 b 435 522 521 483 482 522 z "},"N":{"ha":868,"x_min":0,"x_max":0,"o":"m 428 869 l 93 869 b 0 776 42 869 0 828 l 0 93 b 88 0 0 43 39 0 b 175 93 135 0 175 43 l 175 603 b 267 696 175 654 217 696 l 428 696 b 521 782 479 696 521 735 b 428 869 521 831 479 869 z m 608 696 b 521 603 560 696 521 654 l 521 93 b 608 0 521 43 560 0 b 694 93 656 0 694 43 l 694 603 b 608 696 694 654 656 696 z "},"O":{"ha":868,"x_min":0,"x_max":0,"o":"m 267 696 l 429 696 b 522 782 481 696 522 735 b 429 869 522 831 481 869 l 267 869 b 174 782 215 869 174 831 b 267 696 174 735 215 696 z m 174 603 b 86 696 174 654 135 696 b 0 603 39 696 0 654 l 0 268 b 86 175 0 217 39 175 b 174 268 135 175 174 217 z m 608 696 b 522 603 561 696 522 654 l 522 268 b 608 175 522 217 561 175 b 694 268 656 175 694 217 l 694 603 b 608 696 694 654 656 696 z m 429 175 l 267 175 b 174 88 215 175 174 136 b 267 0 174 40 215 0 l 429 0 b 522 88 481 0 522 40 b 429 175 522 136 481 175 z "},"P":{"ha":868,"x_min":0,"x_max":0,"o":"m 429 349 l 268 349 b 175 442 217 349 175 390 l 175 603 b 268 696 175 654 217 696 l 429 696 b 521 782 479 696 521 735 b 429 869 521 831 479 869 l 93 869 b 0 776 42 869 0 828 l 0 93 b 88 0 0 43 40 0 b 268 175 213 0 135 175 l 429 175 b 521 261 479 175 521 214 b 429 349 521 310 479 349 z m 608 696 b 521 603 561 696 521 654 l 521 442 b 608 349 521 390 561 349 b 696 442 657 349 696 390 l 696 603 b 608 696 696 654 657 696 z "},"Q":{"ha":868,"x_min":0,"x_max":0,"o":"m 608 696 b 522 603 561 696 522 654 l 522 268 b 608 175 522 217 561 175 b 694 268 656 175 694 217 l 694 603 b 608 696 694 654 656 696 z m 174 603 b 267 696 174 654 215 696 l 429 696 b 522 782 481 696 522 735 b 429 869 522 831 481 869 l 93 869 b 0 776 42 869 0 828 l 0 268 b 88 175 0 217 39 175 b 174 268 135 175 174 217 z m 429 175 l 267 175 b 174 88 215 175 174 136 b 267 0 174 40 215 0 l 429 0 b 522 88 481 0 522 40 b 429 175 522 136 481 175 z m 608 0 b 522 -86 561 0 522 -39 b 608 -172 522 -133 561 -172 b 694 -86 656 -172 694 -133 b 608 0 694 -39 656 0 z "},"R":{"ha":868,"x_min":0,"x_max":0,"o":"m 607 175 b 521 88 560 175 521 136 b 607 0 521 40 560 0 b 694 88 656 0 694 40 b 607 175 694 136 656 175 z m 428 349 l 267 349 b 174 442 215 349 174 390 l 174 603 b 267 696 174 654 215 696 l 428 696 b 521 782 478 696 521 735 b 428 869 521 831 478 869 l 92 869 b 0 776 42 869 0 828 l 0 93 b 86 0 0 43 39 0 b 267 175 211 0 133 175 l 428 175 b 521 261 478 175 521 214 b 428 349 521 310 478 349 z m 607 696 b 521 603 560 696 521 654 l 521 442 b 607 349 521 390 560 349 b 694 442 656 349 694 390 l 694 603 b 607 696 694 654 656 696 z "},"S":{"ha":868,"x_min":0,"x_max":0,"o":"m 267 696 l 603 696 b 694 782 653 696 694 735 b 603 869 694 831 653 869 l 267 869 b 175 782 217 869 175 831 b 267 696 175 735 217 696 z m 88 522 b 175 610 135 522 175 561 b 88 696 175 657 135 696 b 0 610 39 696 0 657 b 88 522 0 561 39 522 z m 603 522 l 267 522 b 175 436 217 522 175 483 b 267 349 175 388 217 349 l 429 349 b 608 175 561 349 485 175 b 694 268 656 175 694 217 l 694 431 b 603 522 694 481 653 522 z m 429 175 l 93 175 b 0 88 42 175 0 136 b 93 0 0 40 42 0 l 429 0 b 522 88 481 0 522 40 b 429 175 522 136 481 175 z "},"T":{"ha":694,"x_min":0,"x_max":0,"o":"m 429 871 l 93 871 b 0 778 42 871 0 829 l 0 268 b 86 175 0 217 39 175 b 174 268 135 175 174 217 l 174 604 b 267 697 174 656 215 697 l 429 697 b 522 783 481 697 522 736 b 429 871 522 832 481 871 z m 261 175 b 174 88 213 175 174 136 b 261 0 174 40 213 0 b 347 88 308 0 347 40 b 261 175 347 136 308 175 z "},"U":{"ha":868,"x_min":0,"x_max":0,"o":"m 174 776 b 88 869 174 828 135 869 b 0 776 39 869 0 828 l 0 268 b 88 175 0 217 39 175 b 174 268 135 175 174 217 z m 608 869 b 521 776 560 869 521 828 l 521 268 b 428 175 521 217 479 175 l 267 175 b 174 88 215 175 174 136 b 267 0 174 40 215 0 l 603 0 b 694 93 653 0 694 43 l 694 776 b 608 869 694 828 656 869 z "},"V":{"ha":868,"x_min":0,"x_max":0,"o":"m 608 869 b 522 776 561 869 522 828 l 522 268 b 608 175 522 217 561 175 b 694 268 656 175 694 217 l 694 776 b 608 869 694 828 656 869 z m 174 776 b 86 869 174 828 135 869 b 0 776 39 869 0 828 l 0 442 b 86 349 0 390 39 349 b 174 442 135 349 174 390 z m 435 175 b 261 349 310 175 383 349 b 174 256 213 349 174 307 l 174 93 b 267 0 174 43 215 0 l 429 0 b 522 88 481 0 522 40 b 435 175 522 136 482 175 z "},"W":{"ha":1042,"x_min":0,"x_max":0,"o":"m 175 776 b 88 869 175 828 135 869 b 0 776 39 869 0 828 l 0 442 b 88 349 0 390 39 349 b 175 442 135 349 175 390 z m 521 431 b 435 522 521 481 482 522 b 261 349 310 522 383 349 b 175 256 214 349 175 307 l 175 93 b 261 0 175 43 214 0 b 435 175 383 0 310 175 b 521 268 482 175 521 217 z m 782 869 b 696 776 735 869 696 828 l 696 268 b 782 175 696 217 735 175 b 869 268 831 175 869 217 l 869 776 b 782 869 869 828 831 869 z m 608 175 b 521 88 560 175 521 136 b 608 0 521 40 560 0 b 696 88 656 0 696 40 b 608 175 696 136 656 175 z "},"X":{"ha":868,"x_min":0,"x_max":0,"o":"m 88 349 b 0 256 39 349 0 307 l 0 93 b 88 0 0 43 39 0 b 175 93 135 0 175 43 l 175 256 b 88 349 175 307 135 349 z m 88 522 b 175 615 135 522 175 564 l 175 776 b 88 869 175 828 135 869 b 0 776 39 869 0 828 l 0 615 b 88 522 0 564 39 522 z m 608 349 b 522 256 561 349 522 307 l 522 93 b 608 0 522 43 561 0 b 694 93 656 0 694 43 l 694 256 b 608 349 694 307 656 349 z m 429 522 l 267 522 b 175 436 217 522 175 483 b 267 349 175 388 217 349 l 429 349 b 522 436 481 349 522 388 b 429 522 522 483 481 522 z m 608 869 b 522 776 561 869 522 828 l 522 615 b 608 522 522 564 561 522 b 694 615 656 522 694 564 l 694 776 b 608 869 694 828 656 869 z "},"Y":{"ha":868,"x_min":0,"x_max":0,"o":"m 174 776 b 86 869 174 828 135 869 b 0 776 39 869 0 828 l 0 615 b 86 522 0 564 39 522 b 174 615 135 522 174 564 z m 429 175 l 267 175 b 174 88 215 175 174 136 b 267 0 174 40 215 0 l 429 0 b 522 88 481 0 522 40 b 429 175 522 136 481 175 z m 608 869 b 522 776 561 869 522 828 l 522 615 b 429 522 522 564 481 522 l 267 522 b 174 436 215 522 174 483 b 267 349 174 388 215 349 l 429 349 b 608 175 561 349 485 175 b 694 268 656 175 694 217 l 694 776 b 608 869 694 828 656 869 z "},"Z":{"ha":694,"x_min":0,"x_max":0,"o":"m 88 349 b 0 261 40 349 0 310 b 88 175 0 214 40 175 b 175 261 136 175 175 214 b 88 349 175 310 136 349 z m 429 175 l 268 175 b 175 88 217 175 175 136 b 268 0 175 40 217 0 l 429 0 b 521 88 479 0 521 40 b 429 175 521 136 479 175 z m 429 869 l 93 869 b 0 782 42 869 0 831 b 93 696 0 735 42 696 l 254 696 b 435 522 388 696 310 522 b 521 615 482 522 521 564 l 521 776 b 429 869 521 828 479 869 z m 261 349 b 347 436 308 349 347 388 b 261 522 347 483 308 522 b 175 436 214 522 175 483 b 261 349 175 388 214 349 z "},"[":{"ha":521,"x_min":0,"x_max":0,"o":"m 260 175 b 172 88 211 175 172 136 b 260 0 172 40 211 0 b 346 88 307 0 346 40 b 260 175 346 136 307 175 z m 172 603 b 346 782 172 735 346 658 b 253 869 346 831 304 869 l 93 869 b 0 776 42 869 0 828 l 0 268 b 86 175 0 217 39 175 b 172 268 133 175 172 217 z "},"\\":{"ha":1042,"x_min":0,"x_max":0,"o":"m 781 175 b 694 88 733 175 694 136 b 781 0 694 40 733 0 b 867 88 828 0 867 40 b 781 175 867 136 828 175 z m 260 696 b 174 610 213 696 174 657 b 260 522 174 561 213 522 b 346 610 307 522 346 561 b 260 696 346 657 307 696 z m 86 869 b 0 782 39 869 0 831 b 86 696 0 735 39 696 b 174 782 135 696 174 735 b 86 869 174 831 135 869 z m 433 522 b 346 436 385 522 346 483 b 433 349 346 388 385 349 b 521 436 481 349 521 388 b 433 522 521 483 481 522 z m 607 349 b 521 261 560 349 521 310 b 607 175 521 214 560 175 b 694 261 656 175 694 214 b 607 349 694 310 656 349 z "},"]":{"ha":521,"x_min":0,"x_max":0,"o":"m 86 175 b 0 88 39 175 0 136 b 86 0 0 40 39 0 b 174 88 135 0 174 40 b 86 175 174 136 135 175 z m 253 869 l 92 869 b 0 782 42 869 0 831 b 174 603 0 658 174 735 l 174 268 b 260 175 174 217 213 175 b 346 268 307 175 346 217 l 346 776 b 253 869 346 828 304 869 z "},"^":{"ha":694,"x_min":0,"x_max":0,"o":"m 86 694 b 0 608 39 694 0 656 b 86 521 0 560 39 521 b 174 608 135 521 174 560 b 86 694 174 656 135 694 z m 433 694 b 346 608 385 694 346 656 b 433 521 346 560 385 521 b 519 608 481 521 519 560 b 433 694 519 656 481 694 z m 260 868 b 174 781 213 868 174 829 b 260 694 174 733 213 694 b 346 781 307 694 346 733 b 260 868 346 829 307 868 z "},"_":{"ha":868,"x_min":0,"x_max":0,"o":"m 601 174 l 93 174 b 0 88 42 174 0 135 b 93 0 0 39 42 0 l 601 0 b 694 88 653 0 694 39 b 601 174 694 135 653 174 z "},"`":{"ha":521,"x_min":0,"x_max":0,"o":"m 86 1213 b 0 1126 39 1213 0 1174 b 86 1040 0 1079 39 1040 b 172 1126 133 1040 172 1079 b 86 1213 172 1174 133 1213 z m 260 1040 b 172 953 211 1040 172 1001 b 260 865 172 906 211 865 b 346 953 307 865 346 906 b 260 1040 346 1001 307 1040 z "},"a":{"ha":868,"x_min":0,"x_max":0,"o":"m 174 429 b 86 522 174 481 135 522 b 0 429 39 522 0 481 l 0 267 b 86 174 0 215 39 174 b 174 267 135 174 174 215 z m 601 694 l 267 694 b 174 608 215 694 174 656 b 267 522 174 561 215 522 l 428 522 b 521 429 478 522 521 481 l 521 267 b 428 174 521 215 478 174 l 267 174 b 174 88 215 174 174 135 b 267 0 174 39 215 0 l 601 0 b 694 93 653 0 694 42 l 694 601 b 601 694 694 653 653 694 z "},"b":{"ha":868,"x_min":0,"x_max":0,"o":"m 428 174 l 267 174 b 174 88 217 174 174 135 b 267 0 174 39 217 0 l 428 0 b 521 88 479 0 521 39 b 428 174 521 135 479 174 z m 174 429 b 267 522 174 481 217 522 l 428 522 b 521 608 479 522 521 561 b 428 694 521 656 479 694 l 267 694 b 174 782 217 694 174 733 b 88 868 174 829 135 868 b 0 776 39 868 0 826 l 0 267 b 88 174 0 215 39 174 b 174 267 135 174 174 215 z m 608 522 b 521 429 560 522 521 481 l 521 267 b 608 174 521 215 560 174 b 694 267 656 174 694 215 l 694 429 b 608 522 694 481 656 522 z "},"c":{"ha":867,"x_min":0,"x_max":0,"o":"m 607 349 b 694 435 656 349 694 388 b 607 522 694 483 656 522 b 521 435 560 522 521 483 b 607 349 521 388 560 349 z m 174 429 b 267 522 174 481 215 522 l 428 522 b 521 608 479 522 521 561 b 428 694 521 656 479 694 l 93 694 b 0 601 42 694 0 653 l 0 267 b 86 174 0 215 39 174 b 174 267 135 174 174 215 z m 601 174 l 267 174 b 174 88 215 174 174 135 b 267 0 174 39 215 0 l 601 0 b 694 88 653 0 694 39 b 601 174 694 135 653 174 z "},"d":{"ha":868,"x_min":0,"x_max":0,"o":"m 175 429 b 88 522 175 481 136 522 b 0 429 40 522 0 481 l 0 267 b 88 174 0 215 40 174 b 175 267 136 174 175 215 z m 428 174 l 268 174 b 175 88 217 174 175 135 b 268 0 175 39 217 0 l 428 0 b 521 88 479 0 521 39 b 428 174 521 135 479 174 z m 608 868 b 428 694 482 868 560 694 l 268 694 b 175 608 217 694 175 656 b 268 522 175 561 217 522 l 428 522 b 521 429 479 522 521 481 l 521 267 b 608 174 521 215 560 174 b 696 267 656 174 696 215 l 696 776 b 608 868 696 826 656 868 z "},"e":{"ha":868,"x_min":0,"x_max":0,"o":"m 601 174 l 439 174 b 260 349 308 174 385 349 b 174 435 213 349 174 388 b 260 522 174 483 213 522 b 439 349 385 522 308 349 l 601 349 b 694 435 653 349 694 388 b 521 608 694 560 521 486 b 428 694 521 656 479 694 l 93 694 b 0 601 42 694 0 653 l 0 267 b 174 88 0 135 174 211 b 267 0 174 39 215 0 l 601 0 b 694 88 653 0 694 39 b 601 174 694 135 653 174 z "},"g":{"ha":868,"x_min":0,"x_max":0,"o":"m 428 -172 l 267 -172 b 174 -260 217 -172 174 -212 b 267 -347 174 -308 217 -347 l 428 -347 b 521 -260 479 -347 521 -308 b 428 -172 521 -212 479 -172 z m 174 429 b 88 522 174 481 135 522 b 0 429 39 522 0 481 l 0 267 b 88 174 0 215 39 174 b 174 267 135 174 174 215 z m 603 694 l 267 694 b 174 608 217 694 174 656 b 267 522 174 561 217 522 l 428 522 b 521 429 479 522 521 481 l 521 267 b 428 174 521 215 479 174 l 267 174 b 174 88 217 174 174 135 b 267 0 174 39 217 0 l 428 0 b 608 -172 560 0 483 -172 b 694 -81 656 -172 694 -131 l 694 601 b 603 694 694 653 653 694 z "},"h":{"ha":868,"x_min":0,"x_max":0,"o":"m 428 694 l 267 694 b 86 868 135 694 211 868 b 0 776 39 868 0 826 l 0 93 b 86 0 0 42 39 0 b 174 93 135 0 174 42 l 174 429 b 267 522 174 481 215 522 l 428 522 b 521 608 479 522 521 561 b 428 694 521 656 479 694 z m 607 522 b 521 429 560 522 521 481 l 521 93 b 607 0 521 42 560 0 b 694 93 656 0 694 42 l 694 429 b 607 522 694 481 656 522 z "},"j":{"ha":521,"x_min":0,"x_max":0,"o":"m 260 868 b 346 956 307 868 346 908 b 260 1043 346 1004 307 1043 b 174 956 213 1043 174 1004 b 260 868 174 908 213 868 z m 86 -172 b 0 -260 39 -172 0 -212 b 86 -347 0 -308 39 -347 b 174 -260 135 -347 174 -308 b 86 -172 174 -212 135 -172 z m 253 694 l 92 694 b 0 608 42 694 0 656 b 174 429 0 485 174 561 l 174 -81 b 260 -172 174 -131 213 -172 b 346 -81 307 -172 346 -131 l 346 601 b 253 694 346 653 304 694 z "},"k":{"ha":868,"x_min":0,"x_max":0,"o":"m 607 522 b 694 608 656 522 694 561 b 607 694 694 656 656 694 b 521 608 560 694 521 656 b 607 522 521 561 560 522 z m 607 174 b 521 88 560 174 521 135 b 607 0 521 39 560 0 b 694 88 656 0 694 39 b 607 174 694 135 656 174 z m 521 429 b 433 522 521 481 481 522 b 260 349 308 522 382 349 b 174 440 213 349 174 390 l 174 776 b 86 868 174 826 135 868 b 0 776 39 868 0 826 l 0 93 b 86 0 0 42 39 0 b 267 174 211 0 133 174 l 428 174 b 521 267 478 174 521 215 z "},"l":{"ha":519,"x_min":0,"x_max":0,"o":"m 261 174 b 175 88 213 174 175 135 b 261 0 175 39 213 0 b 347 88 308 0 347 39 b 261 174 347 135 308 174 z m 175 776 b 88 868 175 826 135 868 b 0 776 39 868 0 826 l 0 267 b 88 174 0 215 39 174 b 175 267 135 174 175 215 z "},"m":{"ha":1042,"x_min":0,"x_max":0,"o":"m 603 694 l 93 694 b 0 601 42 694 0 653 l 0 93 b 88 0 0 42 39 0 b 174 93 135 0 174 42 l 174 429 b 263 522 174 481 214 522 b 350 429 310 522 350 481 l 350 93 b 435 0 350 42 389 0 b 521 93 482 0 521 42 l 521 429 b 694 608 521 561 694 485 b 603 694 694 656 653 694 z m 782 522 b 694 429 733 522 694 481 l 694 93 b 782 0 694 42 733 0 b 868 93 829 0 868 42 l 868 429 b 782 522 868 481 829 522 z "},"n":{"ha":868,"x_min":0,"x_max":0,"o":"m 428 694 l 93 694 b 0 601 42 694 0 653 l 0 93 b 88 0 0 42 39 0 b 174 93 135 0 174 42 l 174 429 b 267 522 174 481 215 522 l 428 522 b 521 608 479 522 521 561 b 428 694 521 656 479 694 z m 608 522 b 521 429 560 522 521 481 l 521 93 b 608 0 521 42 560 0 b 694 93 656 0 694 42 l 694 429 b 608 522 694 481 656 522 z "},"o":{"ha":868,"x_min":0,"x_max":0,"o":"m 174 429 b 267 522 174 481 215 522 l 428 522 b 521 608 479 522 521 561 b 428 694 521 656 479 694 l 92 694 b 0 601 42 694 0 653 l 0 267 b 86 174 0 215 39 174 b 174 267 135 174 174 215 z m 607 522 b 521 429 560 522 521 481 l 521 267 b 607 174 521 215 560 174 b 694 267 656 174 694 215 l 694 429 b 607 522 694 481 656 522 z m 428 174 l 267 174 b 174 88 215 174 174 135 b 267 0 174 39 215 0 l 428 0 b 521 88 479 0 521 39 b 428 174 521 135 479 174 z "},"p":{"ha":868,"x_min":0,"x_max":0,"o":"m 428 174 l 267 174 b 175 267 217 174 175 215 l 175 429 b 267 522 175 481 217 522 l 428 522 b 521 608 479 522 521 561 b 428 694 521 656 479 694 l 93 694 b 0 601 42 694 0 653 l 0 -254 b 88 -347 0 -306 39 -347 b 175 -254 135 -347 175 -306 l 175 -93 b 267 0 175 -42 217 0 l 428 0 b 521 88 479 0 521 39 b 428 174 521 135 479 174 z m 608 522 b 521 429 560 522 521 481 l 521 267 b 608 174 521 215 560 174 b 696 267 656 174 696 215 l 696 429 b 608 522 696 481 656 522 z "},"q":{"ha":868,"x_min":0,"x_max":0,"o":"m 267 522 l 428 522 b 521 608 479 522 521 561 b 428 694 521 656 479 694 l 267 694 b 174 608 215 694 174 656 b 267 522 174 561 215 522 z m 174 429 b 88 522 174 481 135 522 b 0 429 39 522 0 481 l 0 267 b 88 174 0 215 39 174 b 174 267 135 174 174 215 z m 607 522 b 521 429 560 522 521 481 l 521 267 b 428 174 521 215 479 174 l 267 174 b 174 88 215 174 174 135 b 267 0 174 39 215 0 l 428 0 b 521 -93 479 0 521 -42 l 521 -254 b 607 -347 521 -306 560 -347 b 694 -254 656 -347 694 -306 l 694 429 b 607 522 694 481 656 522 z "},"r":{"ha":694,"x_min":0,"x_max":0,"o":"m 260 522 b 88 694 138 522 210 694 b 0 601 39 694 0 653 l 0 93 b 88 0 0 42 39 0 b 174 93 135 0 174 42 l 174 256 b 347 435 174 386 347 313 b 260 522 347 483 308 522 z m 435 694 b 347 608 386 694 347 656 b 435 522 347 561 386 522 b 521 608 482 522 521 561 b 435 694 521 656 482 694 z "},"s":{"ha":868,"x_min":0,"x_max":0,"o":"m 93 349 l 254 349 b 439 522 386 349 308 522 l 601 522 b 694 608 653 522 694 561 b 601 696 694 657 653 696 l 267 696 b 88 522 135 696 211 522 b 0 436 39 522 0 483 b 93 349 0 388 42 349 z m 601 349 l 439 349 b 254 175 308 349 386 175 l 93 175 b 0 88 42 175 0 135 b 93 0 0 39 42 0 l 428 0 b 608 175 560 0 483 175 b 694 261 656 175 694 214 b 601 349 694 310 653 349 z "},"t":{"ha":694,"x_min":0,"x_max":0,"o":"m 174 429 b 267 522 174 481 215 522 l 428 522 b 521 608 478 522 521 561 b 428 696 521 657 478 696 l 267 696 b 86 869 133 696 211 869 b 0 776 39 869 0 828 l 0 267 b 86 175 0 217 39 175 b 174 267 135 175 174 217 z m 428 175 l 267 175 b 174 88 215 175 174 135 b 267 0 174 39 215 0 l 428 0 b 521 88 478 0 521 39 b 428 175 521 135 478 175 z "},"u":{"ha":868,"x_min":0,"x_max":0,"o":"m 174 603 b 88 696 174 653 135 696 b 0 603 39 696 0 653 l 0 267 b 88 175 0 217 39 175 b 174 267 135 175 174 217 z m 608 696 b 521 603 560 696 521 653 l 521 267 b 428 175 521 217 479 175 l 267 175 b 174 88 215 175 174 135 b 267 0 174 39 215 0 l 601 0 b 694 93 653 0 694 42 l 694 603 b 608 696 694 653 656 696 z "},"v":{"ha":868,"x_min":0,"x_max":0,"o":"m 608 696 b 521 603 561 696 521 653 l 521 267 b 608 175 521 217 561 175 b 696 267 657 175 696 217 l 696 603 b 608 696 696 653 657 696 z m 175 603 b 88 696 175 653 136 696 b 0 603 40 696 0 653 l 0 442 b 88 349 0 390 40 349 b 175 442 136 349 175 390 z m 435 175 b 261 349 310 175 383 349 b 175 256 214 349 175 307 l 175 93 b 268 0 175 42 217 0 l 429 0 b 521 88 479 0 521 39 b 435 175 521 135 482 175 z "},"w":{"ha":1042,"x_min":0,"x_max":0,"o":"m 521 429 b 433 522 521 481 482 522 b 261 349 311 522 383 349 b 174 256 213 349 174 307 l 174 93 b 261 0 174 42 213 0 b 433 175 383 0 311 175 b 521 267 482 175 521 217 z m 782 696 b 694 603 733 696 694 653 l 694 267 b 782 175 694 217 733 175 b 868 267 829 175 868 217 l 868 603 b 782 696 868 653 829 696 z m 174 603 b 88 696 174 653 135 696 b 0 603 39 696 0 653 l 0 442 b 88 349 0 390 39 349 b 174 442 135 349 174 390 z m 608 175 b 521 88 560 175 521 135 b 608 0 521 39 560 0 b 694 88 656 0 694 39 b 608 175 694 135 656 175 z "},"x":{"ha":694,"x_min":0,"x_max":0,"o":"m 433 522 b 521 608 482 522 521 561 b 433 696 521 657 482 696 b 347 608 386 696 347 657 b 433 522 347 561 386 522 z m 88 175 b 0 88 39 175 0 135 b 88 0 0 39 39 0 b 174 88 135 0 174 39 b 88 175 174 135 135 175 z m 88 522 b 174 608 135 522 174 561 b 88 696 174 657 135 696 b 0 608 39 696 0 657 b 88 522 0 561 39 522 z m 433 175 b 347 88 386 175 347 135 b 433 0 347 39 386 0 b 521 88 482 0 521 39 b 433 175 521 135 482 175 z m 347 429 b 260 522 347 481 308 522 b 174 429 213 522 174 481 l 174 267 b 260 175 174 217 213 175 b 347 267 308 175 347 217 z "},"y":{"ha":868,"x_min":0,"x_max":0,"o":"m 428 -172 l 267 -172 b 175 -260 217 -172 175 -211 b 267 -346 175 -307 217 -346 l 428 -346 b 521 -260 479 -346 521 -307 b 428 -172 521 -211 479 -172 z m 175 603 b 88 696 175 653 135 696 b 0 603 39 696 0 653 l 0 267 b 88 175 0 217 39 175 b 175 267 135 175 175 217 z m 608 696 b 521 603 560 696 521 653 l 521 267 b 428 175 521 217 479 175 l 267 175 b 175 88 217 175 175 135 b 267 0 175 39 217 0 l 428 0 b 608 -172 560 0 483 -172 b 696 -79 656 -172 696 -131 l 696 603 b 608 696 696 653 656 696 z "},"z":{"ha":868,"x_min":0,"x_max":0,"o":"m 93 522 l 254 522 b 433 349 385 522 311 349 b 607 522 558 349 483 522 b 694 608 656 522 694 561 b 601 696 694 657 653 696 l 93 696 b 0 608 42 696 0 657 b 93 522 0 561 42 522 z m 601 175 l 439 175 b 347 261 389 175 347 214 b 260 349 347 310 308 349 b 88 175 138 349 210 175 b 0 88 39 175 0 135 b 93 0 0 39 42 0 l 601 0 b 694 88 653 0 694 39 b 601 175 694 135 653 175 z "},"{":{"ha":694,"x_min":0,"x_max":0,"o":"m 261 522 b 435 696 383 522 310 696 b 521 782 482 696 521 735 b 429 869 521 831 479 869 l 268 869 b 175 776 217 869 175 828 l 175 615 b 261 522 175 564 214 522 z m 88 522 b 0 436 40 522 0 483 b 88 349 0 388 40 349 b 175 436 136 349 175 388 b 88 522 175 483 136 522 z m 435 175 b 261 349 310 175 383 349 b 175 256 214 349 175 307 l 175 93 b 268 0 175 42 217 0 l 429 0 b 521 88 479 0 521 39 b 435 175 521 135 482 175 z "},"|":{"ha":347,"x_min":0,"x_max":0,"o":"m 86 869 b 0 776 39 869 0 828 l 0 93 b 86 0 0 42 39 0 b 174 93 135 0 174 42 l 174 776 b 86 869 174 828 135 869 z "},"}":{"ha":694,"x_min":0,"x_max":0,"o":"m 88 696 b 261 522 213 696 138 522 b 347 615 308 522 347 564 l 347 776 b 254 869 347 828 306 869 l 93 869 b 0 782 42 869 0 831 b 88 696 0 735 40 696 z m 435 522 b 347 436 386 522 347 483 b 435 349 347 388 386 349 b 521 436 482 349 521 388 b 435 522 521 483 482 522 z m 261 349 b 88 175 139 349 213 175 b 0 88 40 175 0 135 b 93 0 0 39 42 0 l 254 0 b 347 93 306 0 347 42 l 347 256 b 261 349 347 307 308 349 z "},"~":{"ha":868,"x_min":0,"x_max":0,"o":"m 260 868 b 174 781 213 868 174 829 b 260 694 174 733 213 694 b 346 781 307 694 346 733 b 260 868 346 829 307 868 z m 86 694 b 0 607 39 694 0 656 b 86 521 0 560 39 521 b 174 607 135 521 174 560 b 86 694 174 656 135 694 z m 607 868 b 521 781 560 868 521 829 b 607 694 521 733 560 694 b 694 781 656 694 694 733 b 607 868 694 829 656 868 z m 433 694 b 346 607 385 694 346 656 b 433 521 346 560 385 521 b 521 607 481 521 521 560 b 433 694 521 656 481 694 z "}," ":{"ha":694,"x_min":0,"x_max":0,"o":""},"":{"ha":838,"x_min":0,"x_max":0,"o":"m 694 638 l 271 638 b 236 597 251 638 236 619 b 271 557 236 575 251 557 l 694 557 b 729 597 714 557 729 575 b 694 638 729 619 714 638 z m 438 219 l 414 219 b 410 215 411 219 410 218 l 410 161 b 414 157 410 158 411 157 l 438 157 b 439 161 438 157 439 158 l 439 215 b 438 219 439 218 439 219 z m 839 842 l 310 842 l 310 1114 b 301 1121 310 1118 306 1121 b 296 1114 299 1121 296 1118 l 296 842 l 240 842 l 240 985 b 225 1001 240 993 233 1001 l 14 1001 b -1 985 6 1001 -1 993 l -1 139 b 138 0 -1 63 61 0 l 701 0 b 839 139 778 0 839 63 z m 67 833 l 169 833 b 188 774 179 833 188 806 b 169 715 188 742 179 715 l 67 715 b 47 774 56 715 47 742 b 67 833 47 806 56 833 z m 325 253 l 297 431 l 297 504 l 328 504 l 328 435 l 344 329 l 375 456 l 375 458 l 406 458 l 406 456 l 438 329 l 453 435 l 453 504 l 485 504 l 485 432 l 456 253 l 456 250 l 426 250 l 425 251 l 390 389 l 357 251 l 357 250 l 325 250 z m 400 219 l 363 219 l 363 192 l 392 192 l 392 186 l 363 186 l 361 150 l 354 150 l 354 226 l 400 226 z m 572 210 l 564 210 l 564 215 b 560 219 564 218 563 219 l 536 219 b 533 215 533 219 533 218 l 533 196 b 536 192 533 193 533 192 l 560 192 b 568 189 564 192 565 190 b 572 182 571 188 572 185 l 572 161 b 568 153 572 158 571 156 b 560 150 565 150 564 150 l 536 150 b 528 153 533 150 531 150 b 525 161 526 156 525 158 l 525 168 l 533 168 l 533 161 b 536 157 533 158 533 157 l 560 157 b 564 161 563 157 564 158 l 564 182 b 560 186 564 185 563 186 l 536 186 b 528 188 533 186 531 186 b 525 196 526 190 525 192 l 525 215 b 526 219 525 217 525 218 l 508 219 l 508 150 l 501 150 l 501 219 l 486 219 l 486 150 l 478 150 l 449 211 l 449 150 l 414 150 b 406 153 410 150 407 150 b 401 161 403 156 401 158 l 401 215 b 406 224 401 218 403 221 b 414 226 408 225 410 226 l 449 226 l 479 167 l 479 226 l 560 226 b 568 224 564 226 567 225 b 572 215 571 221 572 218 z m 617 433 l 614 433 l 614 464 b 606 474 614 471 611 474 l 531 474 b 521 464 524 474 521 471 l 521 289 b 529 281 521 283 524 281 l 604 281 b 613 289 610 281 613 283 l 613 322 l 643 322 l 643 289 b 633 261 643 278 640 268 b 604 250 625 254 615 250 l 529 250 b 501 261 518 250 508 254 b 490 289 494 268 490 278 l 490 464 b 503 493 492 475 496 485 b 531 504 510 501 519 504 l 606 504 b 633 493 615 504 625 501 b 644 467 640 486 643 476 b 650 468 646 468 647 468 l 688 468 b 699 464 692 468 696 467 b 703 454 701 461 703 458 l 703 415 b 699 406 703 411 701 408 b 688 400 696 401 692 400 l 650 400 b 640 406 646 400 643 401 b 636 415 638 408 636 411 l 636 433 z m 701 49 l 642 49 b 646 63 644 53 646 57 b 615 135 646 76 639 106 b 596 171 608 146 596 158 b 600 183 596 175 597 179 b 706 289 618 207 689 271 b 742 417 722 308 742 333 b 688 538 742 501 738 538 l 247 538 b 207 510 225 538 207 526 l 207 460 b 228 426 207 460 207 426 b 243 400 243 426 243 411 l 243 392 b 267 265 243 369 243 288 b 324 201 293 243 324 232 b 300 142 324 185 314 165 l 296 135 b 265 63 285 117 265 85 b 269 49 265 57 267 53 l 138 49 b 46 139 88 49 46 89 l 46 653 l 85 653 l 85 486 b 115 360 85 440 85 390 b 178 335 131 343 153 335 l 196 335 b 229 368 214 335 229 350 b 196 401 229 388 214 401 l 178 401 b 163 406 167 401 164 404 b 151 482 151 418 151 453 l 151 653 l 225 653 b 240 667 233 653 240 660 l 240 794 l 296 794 l 296 661 b 301 654 296 657 299 654 b 310 661 306 654 310 657 l 310 794 l 790 794 l 790 139 b 701 49 790 89 751 49 z m 667 444 l 667 439 l 674 439 l 674 444 z m 13 1018 l 232 1018 b 263 1031 238 1018 251 1018 b 274 1068 272 1042 274 1061 l 274 1074 b 263 1108 274 1081 272 1099 b 233 1121 253 1119 239 1121 l 7 1121 b -24 1108 0 1121 -12 1119 b -33 1074 -32 1099 -33 1081 l -33 1068 b -24 1031 -33 1061 -32 1042 b 7 1018 -12 1019 0 1018 z m 649 410 l 689 410 b 694 415 692 410 694 411 l 694 456 b 689 460 694 458 692 460 l 649 460 b 644 456 646 460 644 458 l 644 415 b 649 410 644 411 646 410 z m 658 451 l 674 451 b 681 444 678 451 681 449 l 681 438 b 676 431 681 433 679 432 b 682 417 678 428 682 417 l 674 417 b 668 431 674 417 669 428 l 667 431 l 667 417 l 658 417 z m 246 933 b 253 896 246 906 253 896 l 282 896 b 289 933 282 896 289 906 b 282 969 289 960 282 969 l 253 969 b 246 933 253 969 246 960 z "},"f":{"ha":867,"x_min":0,"x_max":0,"o":"m 439 694 l 601 694 b 694 782 653 694 694 733 b 601 868 694 829 653 868 l 439 868 b 346 782 388 868 346 829 b 439 694 346 733 388 694 z m 601 522 l 439 522 b 260 694 307 522 382 694 b 86 522 136 694 211 522 b 0 435 39 522 0 483 b 86 349 0 388 39 349 b 174 256 135 349 174 306 l 174 93 b 260 0 174 42 213 0 b 346 93 307 0 346 42 l 346 256 b 439 349 346 306 388 349 l 601 349 b 694 435 653 349 694 388 b 601 522 694 483 653 522 z "},"i":{"ha":694,"x_min":0,"x_max":0,"o":"m 435 174 b 347 267 386 174 347 215 l 347 601 b 254 694 347 653 306 694 l 93 694 b 0 608 42 694 0 656 b 175 429 0 485 175 561 l 175 93 b 268 0 175 42 217 0 l 428 0 b 521 88 479 0 521 39 b 435 174 521 135 482 174 z m 261 868 b 347 956 308 868 347 908 b 261 1043 347 1004 308 1043 b 175 956 214 1043 175 1004 b 261 868 175 908 214 868 z "},"%":{"ha":694,"x_min":0,"x_max":0,"o":"m 88 347 b 0 254 39 347 0 306 l 0 92 b 88 0 0 42 39 0 b 174 92 135 0 174 42 l 174 254 b 88 347 174 306 135 347 z m 88 694 b 174 782 135 694 174 733 b 88 868 174 829 135 868 b 0 782 39 868 0 829 b 88 694 0 733 39 694 z m 435 868 b 347 775 386 868 347 826 l 347 614 b 435 522 347 564 386 522 b 521 614 482 522 521 564 l 521 775 b 435 868 521 826 482 868 z m 260 522 b 174 435 213 522 174 482 b 260 347 174 386 213 347 b 347 435 308 347 347 386 b 260 522 347 482 308 522 z m 435 174 b 347 86 386 174 347 135 b 435 0 347 39 386 0 b 521 86 482 0 521 39 b 435 174 521 135 482 174 z "},"&":{"ha":1042,"x_min":0,"x_max":0,"o":"m 267 694 l 601 694 b 694 782 653 694 694 733 b 601 868 694 829 653 868 l 267 868 b 174 782 215 868 174 829 b 267 694 174 733 215 694 z m 86 522 b 174 608 135 522 174 561 b 86 694 174 656 135 694 b 0 608 39 694 0 656 b 86 522 0 561 39 522 z m 774 522 l 267 522 b 174 435 215 522 174 482 b 267 347 174 386 215 347 l 428 347 b 521 261 479 347 521 308 b 428 174 521 213 479 174 l 267 174 b 174 86 215 174 174 135 b 267 0 174 39 215 0 l 601 0 b 694 92 653 0 694 42 l 694 254 b 867 435 694 386 867 310 b 774 522 867 482 825 522 z m 86 347 b 0 261 39 347 0 308 b 86 174 0 213 39 174 b 174 261 135 174 174 213 b 86 347 174 308 135 347 z "},"€":{"ha":868,"x_min":0,"x_max":0,"o":"m 435 349 b 521 435 482 349 521 388 b 347 608 521 560 347 486 b 440 694 347 656 389 694 l 603 694 b 696 782 654 694 696 733 b 603 869 696 829 654 869 l 268 869 b 175 776 217 869 175 828 l 175 615 b 0 435 175 482 0 560 b 175 261 0 313 175 385 b 261 174 175 214 214 174 b 435 349 383 174 310 349 z m 603 174 l 440 174 b 347 88 389 174 347 135 b 440 0 347 39 389 0 l 603 0 b 696 88 654 0 696 39 b 603 174 696 135 654 174 z "},"∆":{"ha":1042,"x_min":0,"x_max":0,"o":"m 260 347 b 346 440 307 347 346 390 l 346 601 b 260 694 346 653 307 694 b 174 601 213 694 174 653 l 174 440 b 260 347 174 390 213 347 z m 521 440 b 607 347 521 390 560 347 b 694 440 656 347 694 390 l 694 601 b 607 694 694 653 656 694 b 521 601 560 694 521 653 z m 433 694 b 521 782 481 694 521 733 b 433 868 521 829 481 868 b 346 782 385 868 346 829 b 433 694 346 733 385 694 z m 781 347 b 694 261 733 347 694 308 b 781 174 694 213 733 174 b 867 261 828 174 867 213 b 781 347 867 308 828 347 z m 86 347 b 0 261 39 347 0 308 b 86 174 0 213 39 174 b 174 261 135 174 174 213 b 86 347 174 308 135 347 z m 601 174 l 267 174 b 174 86 215 174 174 135 b 267 0 174 39 215 0 l 601 0 b 694 86 653 0 694 39 b 601 174 694 135 653 174 z "},"â":{"ha":868,"x_min":0,"x_max":0,"o":"m 608 869 b 694 957 656 869 694 908 b 608 1043 694 1004 656 1043 b 521 957 560 1043 521 1004 b 608 869 521 908 560 869 z m 433 1043 b 521 1131 482 1043 521 1082 b 433 1217 521 1178 482 1217 b 347 1131 386 1217 347 1178 b 433 1043 347 1082 386 1043 z m 603 696 l 267 696 b 174 610 217 696 174 657 b 267 522 174 561 217 522 l 428 522 b 521 431 479 522 521 481 l 521 268 b 428 175 521 217 479 175 l 267 175 b 174 88 217 175 174 136 b 267 0 174 40 217 0 l 603 0 b 694 93 653 0 694 43 l 694 603 b 603 696 694 654 653 696 z m 261 869 b 347 957 308 869 347 908 b 261 1043 347 1004 308 1043 b 174 957 213 1043 174 1004 b 261 869 174 908 213 869 z m 174 431 b 88 522 174 481 135 522 b 0 431 39 522 0 481 l 0 268 b 88 175 0 217 39 175 b 174 268 135 175 174 217 z "},"ê":{"ha":868,"x_min":0,"x_max":0,"o":"m 601 174 l 439 174 b 260 347 307 174 383 347 b 174 435 213 347 174 386 b 260 522 174 482 213 522 b 439 347 382 522 307 347 l 601 347 b 694 435 653 347 694 386 b 521 608 694 558 521 485 b 428 694 521 656 479 694 l 93 694 b 0 601 42 694 0 653 l 0 267 b 174 86 0 133 174 211 b 267 0 174 39 215 0 l 601 0 b 694 86 653 0 694 39 b 601 174 694 135 653 174 z m 86 868 b 172 956 133 868 172 907 b 86 1043 172 1003 133 1043 b 0 956 39 1043 0 1003 b 86 868 0 907 39 868 z m 433 868 b 521 956 481 868 521 907 b 433 1043 521 1003 481 1043 b 346 956 386 1043 346 1003 b 433 868 346 907 386 868 z m 260 1043 b 346 1129 307 1043 346 1081 b 260 1215 346 1176 307 1215 b 172 1129 211 1215 172 1176 b 260 1043 172 1081 211 1043 z "},"ô":{"ha":868,"x_min":0,"x_max":0,"o":"m 435 869 b 521 957 482 869 521 908 b 435 1043 521 1004 482 1043 b 347 957 386 1043 347 1004 b 435 869 347 908 386 869 z m 260 1043 b 347 1131 308 1043 347 1082 b 260 1217 347 1178 308 1217 b 174 1131 213 1217 174 1178 b 260 1043 174 1082 213 1043 z m 88 869 b 174 957 135 869 174 908 b 88 1043 174 1004 135 1043 b 0 957 39 1043 0 1004 b 88 869 0 908 39 869 z m 174 429 b 267 522 174 481 215 522 l 428 522 b 521 608 479 522 521 561 b 428 694 521 656 479 694 l 92 694 b 0 601 42 694 0 653 l 0 267 b 86 174 0 215 39 174 b 174 267 135 174 174 215 z m 607 522 b 521 429 560 522 521 481 l 521 267 b 607 174 521 215 560 174 b 694 267 656 174 694 215 l 694 429 b 607 522 694 481 656 522 z m 428 174 l 267 174 b 174 88 215 174 174 135 b 267 0 174 39 215 0 l 428 0 b 521 88 479 0 521 39 b 428 174 521 135 479 174 z "},"û":{"ha":868,"x_min":0,"x_max":0,"o":"m 608 869 b 694 957 656 869 694 908 b 608 1043 694 1004 656 1043 b 521 957 560 1043 521 1004 b 608 869 521 908 560 869 z m 433 1043 b 521 1131 482 1043 521 1082 b 433 1217 521 1178 482 1217 b 347 1131 386 1217 347 1178 b 433 1043 347 1082 386 1043 z m 261 869 b 347 957 308 869 347 908 b 261 1043 347 1004 308 1043 b 174 957 213 1043 174 1004 b 261 869 174 908 213 869 z m 174 603 b 88 696 174 653 135 696 b 0 603 39 696 0 653 l 0 267 b 88 175 0 217 39 175 b 174 267 135 175 174 217 z m 608 696 b 521 603 560 696 521 653 l 521 267 b 428 175 521 217 479 175 l 267 175 b 174 88 215 175 174 135 b 267 0 174 39 215 0 l 601 0 b 694 93 653 0 694 42 l 694 603 b 608 696 694 653 656 696 z "},"î":{"ha":694,"x_min":0,"x_max":0,"o":"m 346 174 l 346 693 l 0 693 l 0 521 l 174 521 l 174 0 l 519 0 l 519 174 z m 435 869 b 521 957 482 869 521 908 b 435 1043 521 1004 482 1043 b 347 957 386 1043 347 1004 b 435 869 347 908 386 869 z m 260 1043 b 347 1131 308 1043 347 1082 b 260 1217 347 1178 308 1217 b 174 1131 213 1217 174 1178 b 260 1043 174 1082 213 1043 z m 88 869 b 174 957 135 869 174 908 b 88 1043 174 1004 135 1043 b 0 957 39 1043 0 1004 b 88 869 0 908 39 869 z "},"é":{"ha":868,"x_min":0,"x_max":0,"o":"m 433 1043 b 521 1129 481 1043 521 1081 b 433 1215 521 1176 481 1215 b 346 1129 385 1215 346 1176 b 433 1043 346 1081 385 1043 z m 260 868 b 346 956 307 868 346 907 b 260 1043 346 1003 307 1043 b 174 956 213 1043 174 1003 b 260 868 174 907 213 868 z m 601 174 l 439 174 b 260 349 308 174 385 349 b 174 435 213 349 174 388 b 260 522 174 483 213 522 b 439 349 385 522 308 349 l 601 349 b 694 435 653 349 694 388 b 521 608 694 560 521 486 b 428 694 521 656 479 694 l 93 694 b 0 601 42 694 0 653 l 0 267 b 174 88 0 135 174 211 b 267 0 174 39 215 0 l 601 0 b 694 88 653 0 694 39 b 601 174 694 135 653 174 z "},"ú":{"ha":868,"x_min":0,"x_max":0,"o":"m 433 1043 b 521 1129 481 1043 521 1081 b 433 1215 521 1176 481 1215 b 346 1129 385 1215 346 1176 b 433 1043 346 1081 385 1043 z m 260 868 b 346 956 307 868 346 907 b 260 1043 346 1003 307 1043 b 174 956 213 1043 174 1003 b 260 868 174 907 213 868 z m 174 603 b 88 696 174 653 135 696 b 0 603 39 696 0 653 l 0 267 b 88 175 0 217 39 175 b 174 267 135 175 174 217 z m 608 696 b 521 603 560 696 521 653 l 521 267 b 428 175 521 217 479 175 l 267 175 b 174 88 215 175 174 135 b 267 0 174 39 215 0 l 601 0 b 694 93 653 0 694 42 l 694 603 b 608 696 694 653 656 696 z "},"á":{"ha":868,"x_min":0,"x_max":0,"o":"m 433 1043 b 521 1129 481 1043 521 1081 b 433 1215 521 1176 481 1215 b 346 1129 385 1215 346 1176 b 433 1043 346 1081 385 1043 z m 260 868 b 346 956 307 868 346 907 b 260 1043 346 1003 307 1043 b 174 956 213 1043 174 1003 b 260 868 174 907 213 868 z m 174 429 b 86 522 174 481 135 522 b 0 429 39 522 0 481 l 0 267 b 86 174 0 215 39 174 b 174 267 135 174 174 215 z m 601 694 l 267 694 b 174 608 215 694 174 656 b 267 522 174 561 215 522 l 428 522 b 521 429 478 522 521 481 l 521 267 b 428 174 521 215 478 174 l 267 174 b 174 88 215 174 174 135 b 267 0 174 39 215 0 l 601 0 b 694 93 653 0 694 42 l 694 601 b 601 694 694 653 653 694 z "},"í":{"ha":694,"x_min":0,"x_max":0,"o":"m 260 1043 b 347 1129 307 1043 347 1081 b 260 1215 347 1176 307 1215 b 172 1129 211 1215 172 1176 b 260 1043 172 1081 211 1043 z m 86 868 b 172 956 133 868 172 907 b 86 1043 172 1003 133 1043 b 0 956 39 1043 0 1003 b 86 868 0 907 39 868 z m 435 174 b 347 267 386 174 347 215 l 347 601 b 254 694 347 653 306 694 l 93 694 b 0 608 42 694 0 656 b 175 429 0 485 175 561 l 175 93 b 268 0 175 42 217 0 l 428 0 b 521 88 479 0 521 39 b 435 174 521 135 482 174 z "},"ó":{"ha":868,"x_min":0,"x_max":0,"o":"m 433 1043 b 521 1129 481 1043 521 1081 b 433 1215 521 1176 481 1215 b 346 1129 385 1215 346 1176 b 433 1043 346 1081 385 1043 z m 260 868 b 346 956 307 868 346 907 b 260 1043 346 1003 307 1043 b 174 956 213 1043 174 1003 b 260 868 174 907 213 868 z m 174 429 b 267 522 174 481 215 522 l 428 522 b 521 608 479 522 521 561 b 428 694 521 656 479 694 l 92 694 b 0 601 42 694 0 653 l 0 267 b 86 174 0 215 39 174 b 174 267 135 174 174 215 z m 607 522 b 521 429 560 522 521 481 l 521 267 b 607 174 521 215 560 174 b 694 267 656 174 694 215 l 694 429 b 607 522 694 481 656 522 z m 428 174 l 267 174 b 174 88 215 174 174 135 b 267 0 174 39 215 0 l 428 0 b 521 88 479 0 521 39 b 428 174 521 135 479 174 z "},"à":{"ha":868,"x_min":0,"x_max":0,"o":"m 174 429 b 86 522 174 481 135 522 b 0 429 39 522 0 481 l 0 267 b 86 174 0 215 39 174 b 174 267 135 174 174 215 z m 601 694 l 267 694 b 174 608 215 694 174 656 b 267 522 174 561 215 522 l 428 522 b 521 429 478 522 521 481 l 521 267 b 428 174 521 215 478 174 l 267 174 b 174 88 215 174 174 135 b 267 0 174 39 215 0 l 601 0 b 694 93 653 0 694 42 l 694 601 b 601 694 694 653 653 694 z m 347 1213 b 261 1126 300 1213 261 1174 b 347 1040 261 1079 300 1040 b 433 1126 394 1040 433 1079 b 347 1213 433 1174 394 1213 z m 521 1040 b 433 953 472 1040 433 1001 b 521 865 433 906 472 865 b 607 953 568 865 607 906 b 521 1040 607 1001 568 1040 z "},"è":{"ha":868,"x_min":0,"x_max":0,"o":"m 601 174 l 439 174 b 260 349 308 174 385 349 b 174 435 213 349 174 388 b 260 522 174 483 213 522 b 439 349 385 522 308 349 l 601 349 b 694 435 653 349 694 388 b 521 608 694 560 521 486 b 428 694 521 656 479 694 l 93 694 b 0 601 42 694 0 653 l 0 267 b 174 88 0 135 174 211 b 267 0 174 39 215 0 l 601 0 b 694 88 653 0 694 39 b 601 174 694 135 653 174 z m 347 1213 b 261 1126 300 1213 261 1174 b 347 1040 261 1079 300 1040 b 433 1126 394 1040 433 1079 b 347 1213 433 1174 394 1213 z m 521 1040 b 433 953 472 1040 433 1001 b 521 865 433 906 472 865 b 607 953 568 865 607 906 b 521 1040 607 1001 568 1040 z "},"ò":{"ha":868,"x_min":0,"x_max":0,"o":"m 174 429 b 267 522 174 481 215 522 l 428 522 b 521 608 479 522 521 561 b 428 694 521 656 479 694 l 92 694 b 0 601 42 694 0 653 l 0 267 b 86 174 0 215 39 174 b 174 267 135 174 174 215 z m 607 522 b 521 429 560 522 521 481 l 521 267 b 607 174 521 215 560 174 b 694 267 656 174 694 215 l 694 429 b 607 522 694 481 656 522 z m 428 174 l 267 174 b 174 88 215 174 174 135 b 267 0 174 39 215 0 l 428 0 b 521 88 479 0 521 39 b 428 174 521 135 479 174 z m 347 1213 b 261 1126 300 1213 261 1174 b 347 1040 261 1079 300 1040 b 433 1126 394 1040 433 1079 b 347 1213 433 1174 394 1213 z m 521 1040 b 433 953 472 1040 433 1001 b 521 865 433 906 472 865 b 607 953 568 865 607 906 b 521 1040 607 1001 568 1040 z "},"ù":{"ha":868,"x_min":0,"x_max":0,"o":"m 174 603 b 88 696 174 653 135 696 b 0 603 39 696 0 653 l 0 267 b 88 175 0 217 39 175 b 174 267 135 175 174 217 z m 608 696 b 521 603 560 696 521 653 l 521 267 b 428 175 521 217 479 175 l 267 175 b 174 88 215 175 174 135 b 267 0 174 39 215 0 l 601 0 b 694 93 653 0 694 42 l 694 603 b 608 696 694 653 656 696 z m 347 1213 b 261 1126 300 1213 261 1174 b 347 1040 261 1079 300 1040 b 433 1126 394 1040 433 1079 b 347 1213 433 1174 394 1213 z m 521 1040 b 433 953 472 1040 433 1001 b 521 865 433 906 472 865 b 607 953 568 865 607 906 b 521 1040 607 1001 568 1040 z "},"ì":{"ha":694,"x_min":0,"x_max":0,"o":"m 435 174 b 347 267 386 174 347 215 l 347 601 b 254 694 347 653 306 694 l 93 694 b 0 608 42 694 0 656 b 175 429 0 485 175 561 l 175 93 b 268 0 175 42 217 0 l 428 0 b 521 88 479 0 521 39 b 435 174 521 135 482 174 z m 260 1213 b 174 1126 213 1213 174 1174 b 260 1040 174 1079 213 1040 b 346 1126 307 1040 346 1079 b 260 1213 346 1174 307 1213 z m 433 1040 b 346 953 385 1040 346 1001 b 433 865 346 906 385 865 b 519 953 481 865 519 906 b 433 1040 519 1001 481 1040 z "},"å":{"ha":868,"x_min":0,"x_max":0,"o":"m 435 1043 b 347 956 386 1043 347 1003 b 435 868 347 907 386 868 b 521 956 482 868 521 907 b 435 1043 521 1003 482 1043 z m 608 1043 b 696 1129 656 1043 696 1081 b 608 1215 696 1176 656 1215 b 521 1129 560 1215 521 1176 b 608 1043 521 1081 560 1043 z m 435 1215 b 521 1301 482 1215 521 1254 b 435 1389 521 1350 482 1389 b 347 1301 386 1389 347 1350 b 435 1215 347 1254 386 1215 z m 261 1043 b 347 1129 308 1043 347 1081 b 261 1215 347 1176 308 1215 b 175 1129 214 1215 175 1176 b 261 1043 175 1081 214 1043 z m 174 429 b 86 522 174 481 135 522 b 0 429 39 522 0 481 l 0 267 b 86 174 0 215 39 174 b 174 267 135 174 174 215 z m 601 694 l 267 694 b 174 608 215 694 174 656 b 267 522 174 561 215 522 l 428 522 b 521 429 478 522 521 481 l 521 267 b 428 174 521 215 478 174 l 267 174 b 174 88 215 174 174 135 b 267 0 174 39 215 0 l 601 0 b 694 93 653 0 694 42 l 694 601 b 601 694 694 653 653 694 z "},"°":{"ha":868,"x_min":0,"x_max":0,"o":"m 435 1043 b 347 956 386 1043 347 1003 b 435 868 347 907 386 868 b 521 956 482 868 521 907 b 435 1043 521 1003 482 1043 z m 608 1043 b 696 1129 656 1043 696 1081 b 608 1215 696 1176 656 1215 b 521 1129 560 1215 521 1176 b 608 1043 521 1081 560 1043 z m 435 1215 b 521 1301 482 1215 521 1254 b 435 1389 521 1350 482 1389 b 347 1301 386 1389 347 1350 b 435 1215 347 1254 386 1215 z m 261 1043 b 347 1129 308 1043 347 1081 b 261 1215 347 1176 308 1215 b 175 1129 214 1215 175 1176 b 261 1043 175 1081 214 1043 z "},"ä":{"ha":868,"x_min":0,"x_max":0,"o":"m 607 868 b 693 956 654 868 693 907 b 607 1043 693 1003 654 1043 b 519 956 558 1043 519 1003 b 607 868 519 907 558 868 z m 258 868 b 346 956 307 868 346 907 b 258 1043 346 1003 307 1043 b 172 956 211 1043 172 1003 b 258 868 172 907 211 868 z m 174 429 b 86 522 174 481 135 522 b 0 429 39 522 0 481 l 0 267 b 86 174 0 215 39 174 b 174 267 135 174 174 215 z m 601 694 l 267 694 b 174 608 215 694 174 656 b 267 522 174 561 215 522 l 428 522 b 521 429 478 522 521 481 l 521 267 b 428 174 521 215 478 174 l 267 174 b 174 88 215 174 174 135 b 267 0 174 39 215 0 l 601 0 b 694 93 653 0 694 42 l 694 601 b 601 694 694 653 653 694 z "},"ë":{"ha":868,"x_min":0,"x_max":0,"o":"m 435 868 b 521 956 482 868 521 907 b 435 1043 521 1003 482 1043 b 347 956 386 1043 347 1003 b 435 868 347 907 386 868 z m 86 868 b 174 956 135 868 174 907 b 86 1043 174 1003 135 1043 b 0 956 39 1043 0 1003 b 86 868 0 907 39 868 z m 601 174 l 439 174 b 260 349 308 174 385 349 b 174 435 213 349 174 388 b 260 522 174 483 213 522 b 439 349 385 522 308 349 l 601 349 b 694 435 653 349 694 388 b 521 608 694 560 521 486 b 428 694 521 656 479 694 l 93 694 b 0 601 42 694 0 653 l 0 267 b 174 88 0 135 174 211 b 267 0 174 39 215 0 l 601 0 b 694 88 653 0 694 39 b 601 174 694 135 653 174 z "},"ö":{"ha":868,"x_min":0,"x_max":0,"o":"m 435 868 b 521 956 482 868 521 907 b 435 1043 521 1003 482 1043 b 347 956 386 1043 347 1003 b 435 868 347 907 386 868 z m 86 868 b 174 956 135 868 174 907 b 86 1043 174 1003 135 1043 b 0 956 39 1043 0 1003 b 86 868 0 907 39 868 z m 174 429 b 267 522 174 481 215 522 l 428 522 b 521 608 479 522 521 561 b 428 694 521 656 479 694 l 92 694 b 0 601 42 694 0 653 l 0 267 b 86 174 0 215 39 174 b 174 267 135 174 174 215 z m 607 522 b 521 429 560 522 521 481 l 521 267 b 607 174 521 215 560 174 b 694 267 656 174 694 215 l 694 429 b 607 522 694 481 656 522 z m 428 174 l 267 174 b 174 88 215 174 174 135 b 267 0 174 39 215 0 l 428 0 b 521 88 479 0 521 39 b 428 174 521 135 479 174 z "},"¨":{"ha":868,"x_min":0,"x_max":0,"o":"m 435 868 b 521 956 482 868 521 907 b 435 1043 521 1003 482 1043 b 347 956 386 1043 347 1003 b 435 868 347 907 386 868 z m 86 868 b 174 956 135 868 174 907 b 86 1043 174 1003 135 1043 b 0 956 39 1043 0 1003 b 86 868 0 907 39 868 z "},"ï":{"ha":694,"x_min":0,"x_max":0,"o":"m 435 868 b 521 956 482 868 521 907 b 435 1043 521 1003 482 1043 b 347 956 386 1043 347 1003 b 435 868 347 907 386 868 z m 86 868 b 174 956 135 868 174 907 b 86 1043 174 1003 135 1043 b 0 956 39 1043 0 1003 b 86 868 0 907 39 868 z m 435 174 b 347 267 386 174 347 215 l 347 601 b 254 694 347 653 306 694 l 93 694 b 0 608 42 694 0 656 b 175 429 0 485 175 561 l 175 93 b 268 0 175 42 217 0 l 428 0 b 521 88 479 0 521 39 b 435 174 521 135 482 174 z "},"ü":{"ha":868,"x_min":0,"x_max":0,"o":"m 174 603 b 88 696 174 653 135 696 b 0 603 39 696 0 653 l 0 267 b 88 175 0 217 39 175 b 174 267 135 175 174 217 z m 608 696 b 521 603 560 696 521 653 l 521 267 b 428 175 521 217 479 175 l 267 175 b 174 88 215 175 174 135 b 267 0 174 39 215 0 l 601 0 b 694 93 653 0 694 42 l 694 603 b 608 696 694 653 656 696 z m 608 868 b 694 956 656 868 694 907 b 608 1043 694 1003 656 1043 b 521 956 560 1043 521 1003 b 608 868 521 907 560 868 z m 260 868 b 347 956 308 868 347 907 b 260 1043 347 1003 308 1043 b 174 956 213 1043 174 1003 b 260 868 174 907 213 868 z "},"Ë":{"ha":694,"x_min":0,"x_max":0,"o":"m 428 174 l 267 174 b 174 88 215 174 174 135 b 267 0 174 39 215 0 l 428 0 b 519 88 478 0 519 39 b 428 174 519 135 478 174 z m 428 522 l 267 522 b 174 608 215 522 174 561 b 267 694 174 656 215 694 l 428 694 b 519 782 478 694 519 735 b 428 869 519 829 478 869 l 92 869 b 0 776 42 869 0 828 l 0 267 b 86 174 0 215 39 174 b 267 349 211 174 133 349 l 428 349 b 519 435 478 349 519 388 b 428 522 519 483 478 522 z m 522 1042 b 608 1129 569 1042 608 1081 b 522 1217 608 1176 569 1217 b 435 1129 474 1217 435 1176 b 522 1042 435 1081 474 1042 z m 174 1042 b 261 1129 222 1042 261 1081 b 174 1217 261 1176 222 1217 b 88 1129 126 1217 88 1176 b 174 1042 88 1081 126 1042 z "},"Ï":{"ha":694,"x_min":0,"x_max":0,"o":"m 435 174 b 347 267 386 174 347 215 l 347 601 b 435 694 347 653 386 694 b 521 782 482 694 521 735 b 428 869 521 829 479 869 l 93 869 b 0 782 42 869 0 829 b 88 694 0 735 39 694 b 175 601 135 694 175 653 l 175 267 b 88 174 175 215 135 174 b 0 88 39 174 0 135 b 93 0 0 39 42 0 l 428 0 b 521 88 479 0 521 39 b 435 174 521 135 482 174 z m 435 1042 b 521 1129 482 1042 521 1081 b 435 1217 521 1176 482 1217 b 347 1129 386 1217 347 1176 b 435 1042 347 1081 386 1042 z m 86 1042 b 174 1129 135 1042 174 1081 b 86 1217 174 1176 135 1217 b 0 1129 39 1217 0 1176 b 86 1042 0 1081 39 1042 z "},"Á":{"ha":868,"x_min":0,"x_max":0,"o":"m 433 1215 b 519 1303 481 1215 519 1256 b 433 1390 519 1351 481 1390 b 346 1303 385 1390 346 1351 b 433 1215 346 1256 385 1215 z m 260 1043 b 346 1129 307 1043 346 1082 b 260 1215 346 1176 307 1215 b 174 1129 213 1215 174 1176 b 260 1043 174 1082 213 1043 z m 696 93 l 696 601 b 610 694 696 653 657 694 b 522 601 561 694 522 653 l 522 440 b 431 347 522 389 481 347 l 267 349 b 174 442 215 349 174 390 l 174 601 b 88 694 174 653 135 694 b 0 601 39 694 0 653 l 0 93 b 88 0 0 43 40 0 b 268 174 213 0 135 174 l 429 174 b 610 0 560 174 483 0 b 696 93 656 0 696 43 z m 267 694 l 431 694 b 522 782 481 694 522 735 b 431 869 522 829 481 869 l 267 869 b 174 782 215 869 174 829 b 267 694 174 735 215 694 z "},"Í":{"ha":694,"x_min":0,"x_max":0,"o":"m 260 1215 b 346 1303 307 1215 346 1256 b 260 1390 346 1351 307 1390 b 172 1303 211 1390 172 1351 b 260 1215 172 1256 211 1215 z m 86 1043 b 172 1129 133 1043 172 1082 b 86 1215 172 1176 133 1215 b 0 1129 39 1215 0 1176 b 86 1043 0 1082 39 1043 z m 435 174 b 347 267 386 174 347 215 l 347 601 b 435 694 347 653 386 694 b 521 782 482 694 521 735 b 428 869 521 829 479 869 l 93 869 b 0 782 42 869 0 829 b 88 694 0 735 39 694 b 175 601 135 694 175 653 l 175 267 b 88 174 175 215 135 174 b 0 88 39 174 0 135 b 93 0 0 39 42 0 l 428 0 b 521 88 479 0 521 39 b 435 174 521 135 482 174 z "},"Ó":{"ha":868,"x_min":0,"x_max":0,"o":"m 433 1215 b 519 1303 481 1215 519 1256 b 433 1390 519 1351 481 1390 b 346 1303 385 1390 346 1351 b 433 1215 346 1256 385 1215 z m 260 1043 b 346 1129 307 1043 346 1082 b 260 1215 346 1176 307 1215 b 174 1129 213 1215 174 1176 b 260 1043 174 1082 213 1043 z m 267 696 l 429 696 b 522 782 481 696 522 735 b 429 869 522 831 481 869 l 267 869 b 174 782 215 869 174 831 b 267 696 174 735 215 696 z m 174 603 b 86 696 174 654 135 696 b 0 603 39 696 0 654 l 0 268 b 86 175 0 217 39 175 b 174 268 135 175 174 217 z m 608 696 b 522 603 561 696 522 654 l 522 268 b 608 175 522 217 561 175 b 694 268 656 175 694 217 l 694 603 b 608 696 694 654 656 696 z m 429 175 l 267 175 b 174 88 215 175 174 136 b 267 0 174 40 215 0 l 429 0 b 522 88 481 0 522 40 b 429 175 522 136 481 175 z "},"Ú":{"ha":868,"x_min":0,"x_max":0,"o":"m 433 1215 b 519 1303 481 1215 519 1256 b 433 1390 519 1351 481 1390 b 346 1303 385 1390 346 1351 b 433 1215 346 1256 385 1215 z m 260 1043 b 346 1129 307 1043 346 1082 b 260 1215 346 1176 307 1215 b 174 1129 213 1215 174 1176 b 260 1043 174 1082 213 1043 z m 174 776 b 88 869 174 828 135 869 b 0 776 39 869 0 828 l 0 268 b 88 175 0 217 39 175 b 174 268 135 175 174 217 z m 608 869 b 521 776 560 869 521 828 l 521 268 b 428 175 521 217 479 175 l 267 175 b 174 88 215 175 174 136 b 267 0 174 40 215 0 l 603 0 b 694 93 653 0 694 43 l 694 776 b 608 869 694 828 656 869 z "},"´":{"ha":868,"x_min":0,"x_max":0,"o":"m 433 1215 b 519 1303 481 1215 519 1256 b 433 1390 519 1351 481 1390 b 346 1303 385 1390 346 1351 b 433 1215 346 1256 385 1215 z m 260 1043 b 346 1129 307 1043 346 1082 b 260 1215 346 1176 307 1215 b 174 1129 213 1215 174 1176 b 260 1043 174 1082 213 1043 z "},"É":{"ha":694,"x_min":0,"x_max":0,"o":"m 433 1215 b 519 1303 481 1215 519 1256 b 433 1390 519 1351 481 1390 b 346 1303 385 1390 346 1351 b 433 1215 346 1256 385 1215 z m 260 1043 b 346 1129 307 1043 346 1082 b 260 1215 346 1176 307 1215 b 174 1129 213 1215 174 1176 b 260 1043 174 1082 213 1043 z m 428 174 l 267 174 b 174 88 215 174 174 135 b 267 0 174 39 215 0 l 428 0 b 519 88 478 0 519 39 b 428 174 519 135 478 174 z m 428 522 l 267 522 b 174 608 215 522 174 561 b 267 694 174 656 215 694 l 428 694 b 519 782 478 694 519 735 b 428 869 519 829 478 869 l 92 869 b 0 776 42 869 0 828 l 0 267 b 86 174 0 215 39 174 b 267 349 211 174 133 349 l 428 349 b 519 435 478 349 519 388 b 428 522 519 483 478 522 z "},"ç":{"ha":867,"x_min":0,"x_max":0,"o":"m 608 347 b 694 435 656 347 694 386 b 608 522 694 482 656 522 b 521 435 560 522 521 482 b 608 347 521 386 560 347 z m 601 174 l 267 174 b 174 86 215 174 174 135 b 347 -87 174 -37 347 38 b 433 -174 347 -135 386 -174 b 608 0 558 -174 483 0 b 694 86 656 0 694 39 b 601 174 694 135 653 174 z m 174 429 b 267 522 174 479 215 522 l 428 522 b 521 608 479 522 521 560 b 428 694 521 656 479 694 l 93 694 b 0 601 42 694 0 653 l 0 267 b 88 174 0 215 39 174 b 174 267 135 174 174 215 z "},"õ":{"ha":868,"x_min":0,"x_max":0,"o":"m 88 869 b 174 956 135 869 174 908 b 88 1043 174 1004 135 1043 b 0 956 39 1043 0 1004 b 88 869 0 908 39 869 z m 608 1043 b 694 1129 656 1043 694 1082 b 608 1215 694 1176 656 1215 b 521 1129 560 1215 521 1176 b 608 1043 521 1082 560 1043 z m 433 869 b 521 956 482 869 521 908 b 433 1043 521 1004 482 1043 b 347 956 386 1043 347 1004 b 433 869 347 908 386 869 z m 260 1043 b 347 1129 308 1043 347 1082 b 260 1215 347 1176 308 1215 b 174 1129 213 1215 174 1176 b 260 1043 174 1082 213 1043 z m 174 429 b 267 522 174 481 215 522 l 428 522 b 521 608 479 522 521 561 b 428 694 521 656 479 694 l 92 694 b 0 601 42 694 0 653 l 0 267 b 86 174 0 215 39 174 b 174 267 135 174 174 215 z m 607 522 b 521 429 560 522 521 481 l 521 267 b 607 174 521 215 560 174 b 694 267 656 174 694 215 l 694 429 b 607 522 694 481 656 522 z m 428 174 l 267 174 b 174 88 215 174 174 135 b 267 0 174 39 215 0 l 428 0 b 521 88 479 0 521 39 b 428 174 521 135 479 174 z "},"ñ":{"ha":868,"x_min":0,"x_max":0,"o":"m 88 869 b 174 956 135 869 174 908 b 88 1043 174 1004 135 1043 b 0 956 39 1043 0 1004 b 88 869 0 908 39 869 z m 608 1043 b 694 1129 656 1043 694 1082 b 608 1215 694 1176 656 1215 b 521 1129 560 1215 521 1176 b 608 1043 521 1082 560 1043 z m 433 869 b 521 956 482 869 521 908 b 433 1043 521 1004 482 1043 b 347 956 386 1043 347 1004 b 433 869 347 908 386 869 z m 260 1043 b 347 1129 308 1043 347 1082 b 260 1215 347 1176 308 1215 b 174 1129 213 1215 174 1176 b 260 1043 174 1082 213 1043 z m 428 694 l 93 694 b 0 601 42 694 0 653 l 0 93 b 88 0 0 42 39 0 b 174 93 135 0 174 42 l 174 429 b 267 522 174 481 215 522 l 428 522 b 521 608 479 522 521 561 b 428 694 521 656 479 694 z m 608 522 b 521 429 560 522 521 481 l 521 93 b 608 0 521 42 560 0 b 694 93 656 0 694 42 l 694 429 b 608 522 694 481 656 522 z "},"ã":{"ha":868,"x_min":0,"x_max":0,"o":"m 88 869 b 174 956 135 869 174 908 b 88 1043 174 1004 135 1043 b 0 956 39 1043 0 1004 b 88 869 0 908 39 869 z m 608 1043 b 694 1129 656 1043 694 1082 b 608 1215 694 1176 656 1215 b 521 1129 560 1215 521 1176 b 608 1043 521 1082 560 1043 z m 433 869 b 521 956 482 869 521 908 b 433 1043 521 1004 482 1043 b 347 956 386 1043 347 1004 b 433 869 347 908 386 869 z m 260 1043 b 347 1129 308 1043 347 1082 b 260 1215 347 1176 308 1215 b 174 1129 213 1215 174 1176 b 260 1043 174 1082 213 1043 z m 174 429 b 86 522 174 481 135 522 b 0 429 39 522 0 481 l 0 267 b 86 174 0 215 39 174 b 174 267 135 174 174 215 z m 601 694 l 267 694 b 174 608 215 694 174 656 b 267 522 174 561 215 522 l 428 522 b 521 429 478 522 521 481 l 521 267 b 428 174 521 215 478 174 l 267 174 b 174 88 215 174 174 135 b 267 0 174 39 215 0 l 601 0 b 694 93 653 0 694 42 l 694 601 b 601 694 694 653 653 694 z "},"Ÿ":{"ha":868,"x_min":0,"x_max":0,"o":"m 174 776 b 86 869 174 828 135 869 b 0 776 39 869 0 828 l 0 615 b 86 522 0 564 39 522 b 174 615 135 522 174 564 z m 429 175 l 267 175 b 174 88 215 175 174 136 b 267 0 174 40 215 0 l 429 0 b 522 88 481 0 522 40 b 429 175 522 136 481 175 z m 608 869 b 522 776 561 869 522 828 l 522 615 b 429 522 522 564 481 522 l 267 522 b 174 436 215 522 174 483 b 267 349 174 388 215 349 l 429 349 b 608 175 561 349 485 175 b 694 268 656 175 694 217 l 694 776 b 608 869 694 828 656 869 z m 608 1042 b 694 1129 656 1042 694 1081 b 608 1217 694 1176 656 1217 b 521 1129 560 1217 521 1176 b 608 1042 521 1081 560 1042 z m 260 1042 b 347 1129 308 1042 347 1081 b 260 1217 347 1176 308 1217 b 174 1129 213 1217 174 1176 b 260 1042 174 1081 213 1042 z "},"ÿ":{"ha":868,"x_min":0,"x_max":0,"o":"m 428 -172 l 267 -172 b 175 -260 217 -172 175 -211 b 267 -346 175 -307 217 -346 l 428 -346 b 521 -260 479 -346 521 -307 b 428 -172 521 -211 479 -172 z m 175 603 b 88 696 175 653 135 696 b 0 603 39 696 0 653 l 0 267 b 88 175 0 217 39 175 b 175 267 135 175 175 217 z m 608 696 b 521 603 560 696 521 653 l 521 267 b 428 175 521 217 479 175 l 267 175 b 175 88 217 175 175 135 b 267 0 175 39 217 0 l 428 0 b 608 -172 560 0 483 -172 b 696 -79 656 -172 696 -131 l 696 603 b 608 696 696 653 656 696 z m 608 868 b 694 956 656 868 694 907 b 608 1043 694 1003 656 1043 b 521 956 560 1043 521 1003 b 608 868 521 907 560 868 z m 260 868 b 347 956 308 868 347 907 b 260 1043 347 1003 308 1043 b 174 956 213 1043 174 1003 b 260 868 174 907 213 868 z "},"Ö":{"ha":868,"x_min":0,"x_max":0,"o":"m 267 696 l 429 696 b 522 782 481 696 522 735 b 429 869 522 831 481 869 l 267 869 b 174 782 215 869 174 831 b 267 696 174 735 215 696 z m 174 603 b 86 696 174 654 135 696 b 0 603 39 696 0 654 l 0 268 b 86 175 0 217 39 175 b 174 268 135 175 174 217 z m 608 696 b 522 603 561 696 522 654 l 522 268 b 608 175 522 217 561 175 b 694 268 656 175 694 217 l 694 603 b 608 696 694 654 656 696 z m 429 175 l 267 175 b 174 88 215 175 174 136 b 267 0 174 40 215 0 l 429 0 b 522 88 481 0 522 40 b 429 175 522 136 481 175 z m 608 1042 b 694 1129 656 1042 694 1081 b 608 1217 694 1176 656 1217 b 521 1129 560 1217 521 1176 b 608 1042 521 1081 560 1042 z m 260 1042 b 347 1129 308 1042 347 1081 b 260 1217 347 1176 308 1217 b 174 1129 213 1217 174 1176 b 260 1042 174 1081 213 1042 z "},"Ä":{"ha":868,"x_min":0,"x_max":0,"o":"m 696 93 l 696 601 b 610 694 696 653 657 694 b 522 601 561 694 522 653 l 522 440 b 431 347 522 389 481 347 l 267 349 b 174 442 215 349 174 390 l 174 601 b 88 694 174 653 135 694 b 0 601 39 694 0 653 l 0 93 b 88 0 0 43 40 0 b 268 174 213 0 135 174 l 429 174 b 610 0 560 174 483 0 b 696 93 656 0 696 43 z m 267 694 l 431 694 b 522 782 481 694 522 735 b 431 869 522 829 481 869 l 267 869 b 174 782 215 869 174 829 b 267 694 174 735 215 694 z m 608 1042 b 694 1129 656 1042 694 1081 b 608 1217 694 1176 656 1217 b 521 1129 560 1217 521 1176 b 608 1042 521 1081 560 1042 z m 260 1042 b 347 1129 308 1042 347 1081 b 260 1217 347 1176 308 1217 b 174 1129 213 1217 174 1176 b 260 1042 174 1081 213 1042 z "},"Ü":{"ha":868,"x_min":0,"x_max":0,"o":"m 174 776 b 88 869 174 828 135 869 b 0 776 39 869 0 828 l 0 268 b 88 175 0 217 39 175 b 174 268 135 175 174 217 z m 608 869 b 521 776 560 869 521 828 l 521 268 b 428 175 521 217 479 175 l 267 175 b 174 88 215 175 174 136 b 267 0 174 40 215 0 l 603 0 b 694 93 653 0 694 43 l 694 776 b 608 869 694 828 656 869 z m 608 1042 b 694 1129 656 1042 694 1081 b 608 1217 694 1176 656 1217 b 521 1129 560 1217 521 1176 b 608 1042 521 1081 560 1042 z m 260 1042 b 347 1129 308 1042 347 1081 b 260 1217 347 1176 308 1217 b 174 1129 213 1217 174 1176 b 260 1042 174 1081 213 1042 z "},"…":{"ha":1042,"x_min":0,"x_max":0,"o":"m 88 174 b 0 86 40 174 0 135 b 88 0 0 39 40 0 b 175 86 135 0 175 39 b 88 174 175 135 135 174 z m 783 174 b 697 86 736 174 697 135 b 783 0 697 39 736 0 b 871 86 832 0 871 39 b 783 174 871 135 832 174 z m 436 174 b 349 86 388 174 349 135 b 436 0 349 39 388 0 b 522 86 483 0 522 39 b 436 174 522 135 483 174 z "},"Ç":{"ha":694,"x_min":0,"x_max":0,"o":"m 175 603 b 268 694 175 653 217 694 l 429 694 b 521 782 479 694 521 735 b 429 869 521 831 479 869 l 93 869 b 0 776 42 869 0 828 l 0 267 b 88 175 0 217 40 175 b 175 267 135 175 175 217 z m 429 175 l 268 175 b 175 82 217 175 175 132 l 175 -79 b 261 -172 175 -131 214 -172 b 435 0 383 -172 310 0 b 521 88 482 0 521 39 b 429 175 521 135 479 175 z "},"Å":{"ha":868,"x_min":0,"x_max":0,"o":"m 433 1215 b 521 1303 482 1215 521 1256 b 433 1390 521 1351 482 1390 b 346 1303 386 1390 346 1351 b 433 1215 346 1256 386 1215 z m 607 1043 b 694 1129 656 1043 694 1082 b 607 1215 694 1176 656 1215 b 521 1129 560 1215 521 1176 b 607 1043 521 1082 560 1043 z m 521 956 b 433 1043 521 1004 482 1043 b 346 956 386 1043 346 1004 b 433 869 346 908 386 869 b 521 956 482 869 521 908 z m 601 869 l 265 869 b 172 782 214 869 172 831 b 265 694 172 735 214 694 l 428 694 b 521 603 479 694 521 653 l 521 442 b 428 349 521 390 479 349 l 265 349 b 172 442 214 349 172 390 l 172 603 b 86 694 172 653 133 694 b 0 603 39 694 0 653 l 0 93 b 86 0 0 42 39 0 b 265 175 208 0 133 175 l 428 175 b 607 0 560 175 483 0 b 694 93 656 0 694 42 l 694 776 b 601 869 694 828 653 869 z m 260 1043 b 346 1129 307 1043 346 1082 b 260 1215 346 1176 307 1215 b 174 1129 213 1215 174 1176 b 260 1043 174 1082 213 1043 z "},"«":{"ha":1042,"x_min":0,"x_max":0,"o":"m 88 522 b 0 435 40 522 0 483 b 88 347 0 388 40 347 b 175 435 136 347 175 388 b 88 522 175 483 136 522 z m 782 522 b 868 608 829 522 868 561 b 782 694 868 656 829 694 b 696 608 735 694 696 656 b 782 522 696 561 735 522 z m 261 347 b 175 261 214 347 175 308 b 261 174 175 213 214 174 b 347 261 308 174 347 213 b 261 347 347 308 308 347 z m 782 347 b 696 261 735 347 696 308 b 782 174 696 213 735 174 b 868 261 829 174 868 213 b 782 347 868 308 829 347 z m 261 694 b 175 608 214 694 175 656 b 261 522 175 561 214 522 b 347 608 308 522 347 561 b 261 694 347 656 308 694 z m 608 522 b 521 435 561 522 521 483 b 608 347 521 388 561 347 b 696 435 657 347 696 388 b 608 522 696 483 657 522 z "},"»":{"ha":1042,"x_min":0,"x_max":0,"o":"m 88 522 b 175 608 136 522 175 561 b 88 694 175 656 136 694 b 0 608 40 694 0 656 b 88 522 0 561 40 522 z m 88 347 b 0 261 40 347 0 308 b 88 174 0 213 40 174 b 175 261 136 174 175 213 b 88 347 175 308 136 347 z m 608 522 b 696 608 656 522 696 561 b 608 694 696 656 656 694 b 521 608 561 694 521 656 b 608 522 521 561 561 522 z m 782 522 b 696 435 735 522 696 483 b 782 347 696 388 735 347 b 868 435 829 347 868 388 b 782 522 868 483 829 522 z m 608 347 b 521 261 561 347 521 308 b 608 174 521 213 561 174 b 696 261 656 174 696 213 b 608 347 696 308 656 347 z m 261 522 b 175 435 214 522 175 483 b 261 347 175 388 214 347 b 347 435 308 347 347 388 b 261 522 347 483 308 522 z "},"Ñ":{"ha":868,"x_min":0,"x_max":0,"o":"m 608 1215 b 694 1303 656 1215 694 1256 b 608 1390 694 1351 656 1390 b 521 1303 560 1390 521 1351 b 608 1215 521 1256 560 1215 z m 433 1043 b 521 1129 482 1043 521 1082 b 433 1215 521 1176 482 1215 b 347 1129 386 1215 347 1176 b 433 1043 347 1082 386 1043 z m 260 1215 b 347 1303 308 1215 347 1256 b 260 1390 347 1351 308 1390 b 174 1303 213 1390 174 1351 b 260 1215 174 1256 213 1215 z m 428 869 l 93 869 b 0 776 42 869 0 828 l 0 93 b 88 0 0 42 39 0 b 174 93 135 0 174 42 l 174 603 b 267 694 174 653 215 694 l 428 694 b 521 782 479 694 521 735 b 428 869 521 831 479 869 z m 88 1043 b 174 1129 135 1043 174 1082 b 88 1215 174 1176 135 1215 b 0 1129 39 1215 0 1176 b 88 1043 0 1082 39 1043 z m 608 694 b 521 603 560 694 521 653 l 521 93 b 608 0 521 42 560 0 b 694 93 656 0 694 42 l 694 603 b 608 694 694 653 656 694 z "},"Ù":{"ha":868,"x_min":0,"x_max":0,"o":"m 174 776 b 88 869 174 828 135 869 b 0 776 39 869 0 828 l 0 268 b 88 175 0 217 39 175 b 174 268 135 175 174 217 z m 608 869 b 521 776 560 869 521 828 l 521 268 b 428 175 521 217 479 175 l 267 175 b 174 88 215 175 174 136 b 267 0 174 40 215 0 l 603 0 b 694 93 653 0 694 43 l 694 776 b 608 869 694 828 656 869 z m 347 1386 b 261 1300 300 1386 261 1347 b 347 1214 261 1253 300 1214 b 433 1300 394 1214 433 1253 b 347 1386 433 1347 394 1386 z m 521 1214 b 433 1126 472 1214 433 1175 b 521 1039 433 1079 472 1039 b 607 1126 568 1039 607 1079 b 521 1214 607 1175 568 1214 z "},"Û":{"ha":868,"x_min":0,"x_max":0,"o":"m 608 1039 b 694 1126 656 1039 694 1078 b 608 1213 694 1174 656 1213 b 521 1126 560 1213 521 1174 b 608 1039 521 1078 560 1039 z m 433 1213 b 521 1300 482 1213 521 1251 b 433 1386 521 1347 482 1386 b 347 1300 386 1386 347 1347 b 433 1213 347 1251 386 1213 z m 261 1039 b 347 1126 308 1039 347 1078 b 261 1213 347 1174 308 1213 b 174 1126 213 1213 174 1174 b 261 1039 174 1078 213 1039 z m 174 776 b 88 869 174 828 135 869 b 0 776 39 869 0 828 l 0 268 b 88 175 0 217 39 175 b 174 268 135 175 174 217 z m 608 869 b 521 776 560 869 521 828 l 521 268 b 428 175 521 217 479 175 l 267 175 b 174 88 215 175 174 136 b 267 0 174 40 215 0 l 603 0 b 694 93 653 0 694 43 l 694 776 b 608 869 694 828 656 869 z "},"Ì":{"ha":694,"x_min":0,"x_max":0,"o":"m 435 174 b 347 267 386 174 347 215 l 347 601 b 435 694 347 653 386 694 b 521 782 482 694 521 735 b 428 869 521 829 479 869 l 93 869 b 0 782 42 869 0 829 b 88 694 0 735 39 694 b 175 601 135 694 175 653 l 175 267 b 88 174 175 215 135 174 b 0 88 39 174 0 135 b 93 0 0 39 42 0 l 428 0 b 521 88 479 0 521 39 b 435 174 521 135 482 174 z m 260 1386 b 174 1300 213 1386 174 1347 b 260 1214 174 1253 213 1214 b 346 1300 307 1214 346 1253 b 260 1386 346 1347 307 1386 z m 433 1214 b 346 1126 385 1214 346 1175 b 433 1039 346 1079 385 1039 b 519 1126 481 1039 519 1079 b 433 1214 519 1175 481 1214 z "},"È":{"ha":694,"x_min":0,"x_max":0,"o":"m 428 174 l 267 174 b 174 88 215 174 174 135 b 267 0 174 39 215 0 l 428 0 b 519 88 478 0 519 39 b 428 174 519 135 478 174 z m 428 522 l 267 522 b 174 608 215 522 174 561 b 267 694 174 656 215 694 l 428 694 b 519 782 478 694 519 735 b 428 869 519 829 478 869 l 92 869 b 0 776 42 869 0 828 l 0 267 b 86 174 0 215 39 174 b 267 349 211 174 133 349 l 428 349 b 519 435 478 349 519 388 b 428 522 519 483 478 522 z m 260 1386 b 174 1300 213 1386 174 1347 b 260 1214 174 1253 213 1214 b 346 1300 307 1214 346 1253 b 260 1386 346 1347 307 1386 z m 433 1214 b 346 1126 385 1214 346 1175 b 433 1039 346 1079 385 1039 b 519 1126 481 1039 519 1079 b 433 1214 519 1175 481 1214 z "},"À":{"ha":868,"x_min":0,"x_max":0,"o":"m 696 93 l 696 601 b 610 694 696 653 657 694 b 522 601 561 694 522 653 l 522 440 b 431 347 522 389 481 347 l 267 349 b 174 442 215 349 174 390 l 174 601 b 88 694 174 653 135 694 b 0 601 39 694 0 653 l 0 93 b 88 0 0 43 40 0 b 268 174 213 0 135 174 l 429 174 b 610 0 560 174 483 0 b 696 93 656 0 696 43 z m 267 694 l 431 694 b 522 782 481 694 522 735 b 431 869 522 829 481 869 l 267 869 b 174 782 215 869 174 829 b 267 694 174 735 215 694 z m 347 1386 b 261 1300 300 1386 261 1347 b 347 1214 261 1253 300 1214 b 433 1300 394 1214 433 1253 b 347 1386 433 1347 394 1386 z m 521 1214 b 433 1126 472 1214 433 1175 b 521 1039 433 1079 472 1039 b 607 1126 568 1039 607 1079 b 521 1214 607 1175 568 1214 z "},"Ò":{"ha":868,"x_min":0,"x_max":0,"o":"m 267 696 l 429 696 b 522 782 481 696 522 735 b 429 869 522 831 481 869 l 267 869 b 174 782 215 869 174 831 b 267 696 174 735 215 696 z m 174 603 b 86 696 174 654 135 696 b 0 603 39 696 0 654 l 0 268 b 86 175 0 217 39 175 b 174 268 135 175 174 217 z m 608 696 b 522 603 561 696 522 654 l 522 268 b 608 175 522 217 561 175 b 694 268 656 175 694 217 l 694 603 b 608 696 694 654 656 696 z m 429 175 l 267 175 b 174 88 215 175 174 136 b 267 0 174 40 215 0 l 429 0 b 522 88 481 0 522 40 b 429 175 522 136 481 175 z m 347 1386 b 261 1300 300 1386 261 1347 b 347 1214 261 1253 300 1214 b 433 1300 394 1214 433 1253 b 347 1386 433 1347 394 1386 z m 521 1214 b 433 1126 472 1214 433 1175 b 521 1039 433 1079 472 1039 b 607 1126 568 1039 607 1079 b 521 1214 607 1175 568 1214 z "},"Ô":{"ha":868,"x_min":0,"x_max":0,"o":"m 608 1039 b 694 1126 656 1039 694 1078 b 608 1213 694 1174 656 1213 b 521 1126 560 1213 521 1174 b 608 1039 521 1078 560 1039 z m 433 1213 b 521 1300 482 1213 521 1251 b 433 1386 521 1347 482 1386 b 347 1300 386 1386 347 1347 b 433 1213 347 1251 386 1213 z m 261 1039 b 347 1126 308 1039 347 1078 b 261 1213 347 1174 308 1213 b 174 1126 213 1213 174 1174 b 261 1039 174 1078 213 1039 z m 267 696 l 429 696 b 522 782 481 696 522 735 b 429 869 522 831 481 869 l 267 869 b 174 782 215 869 174 831 b 267 696 174 735 215 696 z m 174 603 b 86 696 174 654 135 696 b 0 603 39 696 0 654 l 0 268 b 86 175 0 217 39 175 b 174 268 135 175 174 217 z m 608 696 b 522 603 561 696 522 654 l 522 268 b 608 175 522 217 561 175 b 694 268 656 175 694 217 l 694 603 b 608 696 694 654 656 696 z m 429 175 l 267 175 b 174 88 215 175 174 136 b 267 0 174 40 215 0 l 429 0 b 522 88 481 0 522 40 b 429 175 522 136 481 175 z "},"ˆ":{"ha":868,"x_min":0,"x_max":0,"o":"m 608 1039 b 694 1126 656 1039 694 1078 b 608 1213 694 1174 656 1213 b 521 1126 560 1213 521 1174 b 608 1039 521 1078 560 1039 z m 433 1213 b 521 1300 482 1213 521 1251 b 433 1386 521 1347 482 1386 b 347 1300 386 1386 347 1347 b 433 1213 347 1251 386 1213 z m 261 1039 b 347 1126 308 1039 347 1078 b 261 1213 347 1174 308 1213 b 174 1126 213 1213 174 1174 b 261 1039 174 1078 213 1039 z "},"Î":{"ha":694,"x_min":0,"x_max":0,"o":"m 435 1039 b 521 1126 482 1039 521 1078 b 435 1213 521 1174 482 1213 b 347 1126 386 1213 347 1174 b 435 1039 347 1078 386 1039 z m 260 1213 b 347 1300 308 1213 347 1251 b 260 1386 347 1347 308 1386 b 174 1300 213 1386 174 1347 b 260 1213 174 1251 213 1213 z m 88 1039 b 174 1126 135 1039 174 1078 b 88 1213 174 1174 135 1213 b 0 1126 39 1213 0 1174 b 88 1039 0 1078 39 1039 z m 435 174 b 347 267 386 174 347 215 l 347 601 b 435 694 347 653 386 694 b 521 782 482 694 521 735 b 428 869 521 829 479 869 l 93 869 b 0 782 42 869 0 829 b 88 694 0 735 39 694 b 175 601 135 694 175 653 l 175 267 b 88 174 175 215 135 174 b 0 88 39 174 0 135 b 93 0 0 39 42 0 l 428 0 b 521 88 479 0 521 39 b 435 174 521 135 482 174 z "},"Ê":{"ha":694,"x_min":0,"x_max":0,"o":"m 435 1039 b 521 1126 482 1039 521 1078 b 435 1213 521 1174 482 1213 b 347 1126 386 1213 347 1174 b 435 1039 347 1078 386 1039 z m 260 1213 b 347 1300 308 1213 347 1251 b 260 1386 347 1347 308 1386 b 174 1300 213 1386 174 1347 b 260 1213 174 1251 213 1213 z m 88 1039 b 174 1126 135 1039 174 1078 b 88 1213 174 1174 135 1213 b 0 1126 39 1213 0 1174 b 88 1039 0 1078 39 1039 z m 428 174 l 267 174 b 174 88 215 174 174 135 b 267 0 174 39 215 0 l 428 0 b 519 88 478 0 519 39 b 428 174 519 135 478 174 z m 428 522 l 267 522 b 174 608 215 522 174 561 b 267 694 174 656 215 694 l 428 694 b 519 782 478 694 519 735 b 428 869 519 829 478 869 l 92 869 b 0 776 42 869 0 828 l 0 267 b 86 174 0 215 39 174 b 267 349 211 174 133 349 l 428 349 b 519 435 478 349 519 388 b 428 522 519 483 478 522 z "},"Â":{"ha":868,"x_min":0,"x_max":0,"o":"m 608 1039 b 694 1126 656 1039 694 1078 b 608 1213 694 1174 656 1213 b 521 1126 560 1213 521 1174 b 608 1039 521 1078 560 1039 z m 433 1213 b 521 1300 482 1213 521 1251 b 433 1386 521 1347 482 1386 b 347 1300 386 1386 347 1347 b 433 1213 347 1251 386 1213 z m 261 1039 b 347 1126 308 1039 347 1078 b 261 1213 347 1174 308 1213 b 174 1126 213 1213 174 1174 b 261 1039 174 1078 213 1039 z m 696 93 l 696 601 b 610 694 696 653 657 694 b 522 601 561 694 522 653 l 522 440 b 431 347 522 389 481 347 l 267 349 b 174 442 215 349 174 390 l 174 601 b 88 694 174 653 135 694 b 0 601 39 694 0 653 l 0 93 b 88 0 0 43 40 0 b 268 174 213 0 135 174 l 429 174 b 610 0 560 174 483 0 b 696 93 656 0 696 43 z m 267 694 l 431 694 b 522 782 481 694 522 735 b 431 869 522 829 481 869 l 267 869 b 174 782 215 869 174 829 b 267 694 174 735 215 694 z "},"¢":{"ha":867,"x_min":0,"x_max":0,"o":"m 607 349 b 694 435 656 349 694 388 b 607 522 694 483 656 522 b 521 435 560 522 521 483 b 607 349 521 388 560 349 z m 174 429 b 267 522 174 481 215 522 l 428 522 b 521 615 479 522 521 564 l 521 776 b 433 869 521 828 482 869 b 254 694 310 869 383 694 l 93 694 b 0 601 42 694 0 653 l 0 267 b 86 174 0 215 39 174 b 174 267 135 174 174 215 z m 601 174 l 267 174 b 174 88 215 174 174 135 b 346 -86 174 -37 346 36 b 433 -172 346 -133 386 -172 b 607 0 558 -172 483 0 b 694 88 656 0 694 39 b 601 174 694 135 653 174 z "},"ø":{"ha":868,"x_min":0,"x_max":0,"o":"m 267 696 l 429 696 b 522 782 481 696 522 735 b 429 869 522 831 481 869 l 267 869 b 174 782 215 869 174 831 b 267 696 174 735 215 696 z m 174 603 b 86 696 174 654 135 696 b 0 603 39 696 0 654 l 0 268 b 86 175 0 217 39 175 b 174 268 135 175 174 217 z m 608 696 b 522 603 561 696 522 654 l 522 268 b 608 175 522 217 561 175 b 694 268 656 175 694 217 l 694 603 b 608 696 694 654 656 696 z m 429 175 l 267 175 b 174 88 215 175 174 136 b 267 0 174 40 215 0 l 429 0 b 522 88 481 0 522 40 b 429 175 522 136 481 175 z "},"Õ":{"ha":868,"x_min":0,"x_max":0,"o":"m 88 1039 b 174 1125 135 1039 174 1078 b 88 1213 174 1174 135 1213 b 0 1125 39 1213 0 1174 b 88 1039 0 1078 39 1039 z m 608 1213 b 694 1299 656 1213 694 1251 b 608 1385 694 1346 656 1385 b 521 1299 560 1385 521 1346 b 608 1213 521 1251 560 1213 z m 433 1039 b 521 1125 482 1039 521 1078 b 433 1213 521 1174 482 1213 b 347 1125 386 1213 347 1174 b 433 1039 347 1078 386 1039 z m 260 1213 b 347 1299 308 1213 347 1251 b 260 1385 347 1346 308 1385 b 174 1299 213 1385 174 1346 b 260 1213 174 1251 213 1213 z m 267 696 l 429 696 b 522 782 481 696 522 735 b 429 869 522 831 481 869 l 267 869 b 174 782 215 869 174 831 b 267 696 174 735 215 696 z m 174 603 b 86 696 174 654 135 696 b 0 603 39 696 0 654 l 0 268 b 86 175 0 217 39 175 b 174 268 135 175 174 217 z m 608 696 b 522 603 561 696 522 654 l 522 268 b 608 175 522 217 561 175 b 694 268 656 175 694 217 l 694 603 b 608 696 694 654 656 696 z m 429 175 l 267 175 b 174 88 215 175 174 136 b 267 0 174 40 215 0 l 429 0 b 522 88 481 0 522 40 b 429 175 522 136 481 175 z "},"Ã":{"ha":868,"x_min":0,"x_max":0,"o":"m 88 1039 b 174 1125 135 1039 174 1078 b 88 1213 174 1174 135 1213 b 0 1125 39 1213 0 1174 b 88 1039 0 1078 39 1039 z m 608 1213 b 694 1299 656 1213 694 1251 b 608 1385 694 1346 656 1385 b 521 1299 560 1385 521 1346 b 608 1213 521 1251 560 1213 z m 433 1039 b 521 1125 482 1039 521 1078 b 433 1213 521 1174 482 1213 b 347 1125 386 1213 347 1174 b 433 1039 347 1078 386 1039 z m 260 1213 b 347 1299 308 1213 347 1251 b 260 1385 347 1346 308 1385 b 174 1299 213 1385 174 1346 b 260 1213 174 1251 213 1213 z m 696 93 l 696 601 b 610 694 696 653 657 694 b 522 601 561 694 522 653 l 522 440 b 431 347 522 389 481 347 l 267 349 b 174 442 215 349 174 390 l 174 601 b 88 694 174 653 135 694 b 0 601 39 694 0 653 l 0 93 b 88 0 0 43 40 0 b 268 174 213 0 135 174 l 429 174 b 610 0 560 174 483 0 b 696 93 656 0 696 43 z m 267 694 l 431 694 b 522 782 481 694 522 735 b 431 869 522 829 481 869 l 267 869 b 174 782 215 869 174 829 b 267 694 174 735 215 694 z "},"˚":{"ha":868,"x_min":0,"x_max":0,"o":"m 260 694 b 172 607 211 694 172 654 b 260 519 172 558 211 519 b 346 607 307 519 346 558 b 260 694 346 654 307 694 z m 433 694 b 521 781 481 694 521 732 b 433 867 521 828 481 867 b 346 781 385 867 346 828 b 433 694 346 732 385 694 z m 260 867 b 346 953 307 867 346 906 b 260 1040 346 1001 307 1040 b 172 953 211 1040 172 1001 b 260 867 172 906 211 867 z m 86 694 b 172 781 133 694 172 732 b 86 867 172 828 133 867 b 0 781 39 867 0 828 b 86 694 0 732 39 694 z "},"Ø":{"ha":868,"x_min":0,"x_max":0,"o":"m 267 696 l 429 696 b 522 782 481 696 522 735 b 429 869 522 831 481 869 l 267 869 b 174 782 215 869 174 831 b 267 696 174 735 215 696 z m 174 603 b 86 696 174 654 135 696 b 0 603 39 696 0 654 l 0 268 b 86 175 0 217 39 175 b 174 268 135 175 174 217 z m 608 696 b 522 603 561 696 522 654 l 522 268 b 608 175 522 217 561 175 b 694 268 656 175 694 217 l 694 603 b 608 696 694 654 656 696 z m 429 175 l 267 175 b 174 88 215 175 174 136 b 267 0 174 40 215 0 l 429 0 b 522 88 481 0 522 40 b 429 175 522 136 481 175 z "},"ƒ":{"ha":867,"x_min":0,"x_max":0,"o":"m 435 522 b 261 694 310 522 383 694 b 88 522 139 694 211 522 b 0 435 40 522 0 483 b 175 256 0 311 175 385 l 175 93 b 0 -86 175 -39 0 36 b 93 -174 0 -135 42 -174 l 254 -174 b 347 -81 306 -174 347 -131 l 347 256 b 435 347 347 306 386 347 b 521 435 482 347 521 388 b 435 522 521 483 482 522 z m 603 868 l 440 868 b 347 782 389 868 347 829 b 440 694 347 733 389 694 l 603 694 b 696 782 654 694 696 733 b 603 868 696 829 654 868 z "},"‹":{"ha":694,"x_min":0,"x_max":0,"o":"m 433 693 b 521 781 482 693 521 733 b 433 868 521 829 482 868 b 347 781 386 868 347 829 b 433 693 347 733 386 693 z m 261 521 b 347 607 308 521 347 560 b 261 693 347 654 308 693 b 174 607 213 693 174 654 b 261 521 174 560 213 521 z m 433 174 b 347 86 386 174 347 133 b 433 -1 347 38 386 -1 b 521 86 482 -1 521 38 b 433 174 521 133 482 174 z m 88 521 b 0 433 39 521 0 482 b 88 347 0 386 39 347 b 174 433 135 347 174 386 b 88 521 174 482 135 521 z m 261 347 b 174 260 213 347 174 308 b 261 174 174 213 213 174 b 347 260 308 174 347 213 b 261 347 347 308 308 347 z "},"›":{"ha":694,"x_min":0,"x_max":0,"o":"m 88 694 b 175 782 136 694 175 735 b 88 869 175 831 136 869 b 0 782 40 869 0 831 b 88 694 0 735 40 694 z m 261 522 b 347 608 308 522 347 561 b 261 694 347 656 308 694 b 175 608 214 694 175 656 b 261 522 175 561 214 522 z m 88 175 b 0 88 40 175 0 135 b 88 0 0 39 40 0 b 175 88 136 0 175 39 b 88 175 175 135 136 175 z m 261 349 b 175 261 214 349 175 310 b 261 175 175 214 214 175 b 347 261 308 175 347 214 b 261 349 347 310 308 349 z m 435 522 b 347 435 386 522 347 483 b 435 349 347 388 386 349 b 521 435 482 349 521 388 b 435 522 521 483 482 522 z "},"†":{"ha":694,"x_min":0,"x_max":0,"o":"m 433 522 b 260 694 310 522 385 694 b 88 522 138 694 210 522 b 0 435 39 522 0 483 b 174 256 0 311 174 388 l 174 -81 b 260 -172 174 -131 213 -172 b 347 -81 308 -172 347 -131 l 347 256 b 521 435 347 388 521 311 b 433 522 521 483 482 522 z "},"÷":{"ha":694,"x_min":0,"x_max":0,"o":"m 261 175 b 175 88 214 175 175 135 b 261 0 175 39 214 0 b 347 88 308 0 347 39 b 261 175 347 135 308 175 z m 261 694 b 347 782 308 694 347 735 b 261 869 347 831 308 869 b 175 782 214 869 175 831 b 261 694 175 735 214 694 z m 429 522 l 93 522 b 0 435 43 522 0 483 b 93 349 0 388 43 349 l 429 349 b 521 435 479 349 521 388 b 429 522 521 483 479 522 z "},"◊":{"ha":1042,"x_min":0,"x_max":0,"o":"m 86 522 b 0 435 39 522 0 483 b 86 349 0 388 39 349 b 174 435 135 349 174 388 b 86 522 174 483 135 522 z m 433 694 b 521 782 481 694 521 735 b 433 869 521 831 481 869 b 346 782 386 869 346 831 b 433 694 346 735 386 694 z m 260 522 b 346 608 307 522 346 561 b 260 694 346 656 307 694 b 174 608 213 694 174 656 b 260 522 174 561 213 522 z m 607 522 b 694 608 656 522 694 561 b 607 694 694 656 656 694 b 521 608 560 694 521 656 b 607 522 521 561 560 522 z m 433 175 b 346 88 386 175 346 135 b 433 0 346 39 386 0 b 521 88 481 0 521 39 b 433 175 521 135 481 175 z m 607 349 b 521 261 560 349 521 310 b 607 175 521 214 560 175 b 694 261 656 175 694 214 b 607 349 694 310 656 349 z m 781 522 b 694 435 733 522 694 483 b 781 349 694 388 733 349 b 867 435 828 349 867 388 b 781 522 867 483 828 522 z m 260 349 b 174 261 213 349 174 310 b 260 175 174 214 213 175 b 346 261 307 175 346 214 b 260 349 346 310 307 349 z "},"≤":{"ha":694,"x_min":0,"x_max":0,"o":"m 260 522 b 347 608 308 522 347 561 b 260 696 347 657 308 696 b 174 608 213 696 174 657 b 260 522 174 561 213 522 z m 433 696 b 521 782 482 696 521 735 b 433 869 521 831 482 869 b 347 782 386 869 347 831 b 433 696 347 735 386 696 z m 428 349 l 267 349 b 174 261 215 349 174 310 b 267 175 174 214 215 175 l 428 175 b 521 261 479 175 521 214 b 428 349 521 310 479 349 z m 428 0 l 93 0 b 0 -86 42 0 0 -39 b 93 -172 0 -133 42 -172 l 428 -172 b 521 -86 479 -172 521 -133 b 428 0 521 -39 479 0 z m 88 349 b 174 436 135 349 174 388 b 88 522 174 483 135 522 b 0 436 39 522 0 483 b 88 349 0 388 39 349 z "},"≥":{"ha":694,"x_min":0,"x_max":0,"o":"m 261 522 b 347 608 308 522 347 561 b 261 696 347 657 308 696 b 174 608 213 696 174 657 b 261 522 174 561 213 522 z m 433 349 b 521 436 482 349 521 388 b 433 522 521 483 482 522 b 347 436 386 522 347 483 b 433 349 347 388 386 349 z m 88 696 b 174 782 135 696 174 735 b 88 869 174 831 135 869 b 0 782 39 869 0 831 b 88 696 0 735 39 696 z m 428 0 l 93 0 b 0 -86 42 0 0 -39 b 93 -172 0 -133 42 -172 l 428 -172 b 521 -86 479 -172 521 -133 b 428 0 521 -39 479 0 z m 93 175 l 254 175 b 347 261 306 175 347 214 b 254 349 347 310 306 349 l 93 349 b 0 261 42 349 0 310 b 93 175 0 214 42 175 z "},"•":{"ha":694,"x_min":0,"x_max":0,"o":"m 433 522 b 260 694 308 522 382 694 b 86 522 136 694 211 522 b 0 435 39 522 0 483 b 174 261 0 313 174 385 b 260 174 174 214 213 174 b 433 349 382 174 308 349 b 521 435 481 349 521 388 b 433 522 521 483 481 522 z "},"™":{"ha":1211,"x_min":0,"x_max":0,"o":"m 428 694 l 93 694 b 0 608 42 694 0 656 b 175 429 0 485 175 561 l 175 267 b 261 174 175 215 214 174 b 347 267 308 174 347 215 l 347 429 b 521 608 347 561 521 485 b 428 694 521 656 479 694 z m 608 522 b 521 429 560 522 521 481 l 521 267 b 608 174 521 215 560 174 b 696 267 656 174 696 215 l 696 429 b 608 522 696 481 656 522 z m 954 522 b 782 694 832 522 904 694 b 696 608 733 694 696 656 b 868 429 696 485 868 561 l 868 267 b 954 174 868 215 907 174 b 1042 267 1003 174 1042 215 l 1042 429 b 954 522 1042 481 1003 522 z "},"¡":{"ha":347,"x_min":0,"x_max":0,"o":"m 86 521 b 172 607 133 521 172 560 b 86 694 172 656 133 694 b 0 607 38 694 0 656 b 86 521 0 560 38 521 z m 86 347 b 0 256 39 347 0 306 l 0 -254 b 86 -347 0 -306 39 -347 b 174 -254 135 -347 174 -306 l 174 256 b 86 347 174 306 135 347 z "},"¿":{"ha":868,"x_min":0,"x_max":0,"o":"m 601 0 l 267 0 b 174 -86 215 0 174 -39 b 267 -174 174 -135 215 -174 l 601 -174 b 694 -86 653 -174 694 -135 b 601 0 694 -39 653 0 z m 267 174 l 428 174 b 521 261 479 174 521 213 b 428 347 521 308 479 347 l 267 347 b 174 261 215 347 174 308 b 267 174 174 213 215 174 z m 433 522 b 521 608 482 522 521 561 b 433 694 521 656 482 694 b 347 608 386 694 347 656 b 433 522 347 561 386 522 z m 88 174 b 0 86 39 174 0 135 b 88 0 0 39 39 0 b 174 86 135 0 174 39 b 88 174 174 135 135 174 z "},"£":{"ha":868,"x_min":0,"x_max":0,"o":"m 88 174 b 0 88 40 174 0 135 b 88 0 0 39 40 0 b 175 88 136 0 175 39 b 88 174 175 135 136 174 z m 435 349 b 521 435 482 349 521 388 b 347 608 521 560 347 486 b 440 694 347 656 389 694 l 603 694 b 696 782 654 694 696 733 b 603 869 696 829 654 869 l 268 869 b 175 776 217 869 175 828 l 175 615 b 0 435 175 482 0 560 b 175 261 0 313 175 385 b 261 174 175 214 214 174 b 435 349 383 174 310 349 z m 603 174 l 440 174 b 347 88 389 174 347 135 b 440 0 347 39 389 0 l 603 0 b 696 88 654 0 696 39 b 603 174 696 135 654 174 z "},"⁄":{"ha":694,"x_min":0,"x_max":0,"o":"m 88 349 b 0 256 39 349 0 307 l 0 93 b 88 0 0 42 39 0 b 174 93 135 0 174 42 l 174 256 b 88 349 174 307 135 349 z m 260 522 b 174 436 213 522 174 483 b 260 349 174 388 213 349 b 346 436 308 349 346 388 b 260 522 346 483 308 522 z m 433 869 b 346 776 386 869 346 828 l 346 615 b 433 522 346 564 386 522 b 521 615 482 522 521 564 l 521 776 b 433 869 521 828 482 869 z "},"‰":{"ha":1042,"x_min":0,"x_max":0,"o":"m 88 347 b 0 254 39 347 0 306 l 0 92 b 88 0 0 42 39 0 b 174 92 135 0 174 42 l 174 254 b 88 347 174 306 135 347 z m 88 694 b 174 782 135 694 174 733 b 88 868 174 829 135 868 b 0 782 39 868 0 829 b 88 694 0 733 39 694 z m 260 522 b 174 435 213 522 174 482 b 260 347 174 386 213 347 b 347 435 308 347 347 386 b 260 522 347 482 308 522 z m 435 174 b 347 86 386 174 347 135 b 435 0 347 39 386 0 b 521 86 482 0 521 39 b 435 174 521 135 482 174 z m 435 868 b 347 775 386 868 347 826 l 347 614 b 435 522 347 564 386 522 b 521 614 482 522 521 564 l 521 775 b 435 868 521 826 482 868 z m 781 174 b 693 86 732 174 693 135 b 781 0 693 39 732 0 b 867 86 828 0 867 39 b 781 174 867 135 828 174 z "},"¶":{"ha":1042,"x_min":0,"x_max":0,"o":"m 775 869 l 93 869 b 0 776 42 869 0 828 l 0 615 b 88 522 0 564 39 522 b 260 694 210 522 138 694 b 347 608 308 694 347 656 b 174 435 347 486 174 560 b 347 256 174 311 347 388 l 347 93 b 433 0 347 42 386 0 b 521 93 482 0 521 42 l 521 601 b 608 694 521 653 560 694 b 694 601 656 694 694 653 l 694 93 b 781 0 694 42 733 0 b 867 93 829 0 867 42 l 867 776 b 775 869 867 828 825 869 z "},"µ":{"ha":868,"x_min":0,"x_max":0,"o":"m 428 175 l 267 175 b 174 268 215 175 174 217 l 174 603 b 86 696 174 654 135 696 b 0 603 39 696 0 654 l 0 -79 b 86 -172 0 -131 39 -172 b 267 0 211 -172 133 0 l 428 0 b 521 88 479 0 521 40 b 428 175 521 136 479 175 z m 607 696 b 521 603 560 696 521 654 l 521 268 b 607 175 521 217 560 175 b 694 268 656 175 694 217 l 694 603 b 607 696 694 654 656 696 z "},"∑":{"ha":868,"x_min":0,"x_max":0,"o":"m 88 696 b 260 522 210 696 138 522 b 439 696 385 522 308 696 l 601 696 b 694 782 653 696 694 735 b 601 869 694 831 653 869 l 93 869 b 0 782 42 869 0 831 b 88 696 0 735 39 696 z m 601 175 l 439 175 b 347 261 389 175 347 214 b 260 349 347 310 308 349 b 88 175 138 349 210 175 b 0 88 39 175 0 136 b 93 0 0 40 42 0 l 601 0 b 694 88 653 0 694 40 b 601 175 694 136 653 175 z m 347 436 b 433 349 347 388 386 349 b 521 436 482 349 521 388 b 433 522 521 483 482 522 b 347 436 386 522 347 483 z "},"¥":{"ha":694,"x_min":0,"x_max":0,"o":"m 435 869 b 347 776 386 869 347 828 l 347 615 b 435 522 347 564 386 522 b 521 615 482 522 521 564 l 521 776 b 435 869 521 828 482 869 z m 435 349 b 261 522 310 349 383 522 b 88 349 138 522 213 349 b 0 261 40 349 0 310 b 175 88 0 138 175 213 b 261 0 175 40 214 0 b 435 175 383 0 310 175 b 521 261 482 175 521 214 b 435 349 521 310 482 349 z m 88 522 b 175 615 136 522 175 564 l 175 776 b 88 869 175 828 136 869 b 0 776 40 869 0 828 l 0 615 b 88 522 0 564 40 522 z "},"±":{"ha":694,"x_min":0,"x_max":0,"o":"m 86 522 b 260 349 211 522 138 349 b 433 522 382 349 308 522 b 521 610 481 522 521 561 b 346 782 521 732 346 660 b 260 869 346 831 307 869 b 86 696 138 869 211 696 b 0 610 39 696 0 657 b 86 522 0 561 39 522 z m 428 175 l 92 175 b 0 88 42 175 0 136 b 92 0 0 40 42 0 l 428 0 b 521 88 479 0 521 40 b 428 175 521 136 479 175 z "},"‡":{"ha":694,"x_min":0,"x_max":0,"o":"m 433 349 b 347 436 386 349 347 388 b 521 608 347 558 521 486 b 347 782 521 731 347 657 b 260 869 347 831 308 869 b 88 694 138 869 210 694 b 0 608 39 694 0 657 b 174 436 0 486 174 558 b 0 261 174 311 0 386 b 174 88 0 139 174 211 b 260 0 174 39 213 0 b 433 175 385 0 310 175 b 521 261 482 175 521 214 b 433 349 521 310 482 349 z "},"‚":{"ha":521,"x_min":0,"x_max":0,"o":"m 86 0 b 0 -86 39 0 0 -39 b 86 -172 0 -133 39 -172 b 174 -86 135 -172 174 -133 b 86 0 174 -39 135 0 z m 261 349 b 174 256 213 349 174 307 l 174 93 b 261 0 174 42 213 0 b 347 93 308 0 347 42 l 347 256 b 261 349 347 307 308 349 z "},"„":{"ha":868,"x_min":0,"x_max":0,"o":"m 347 256 b 261 349 347 307 308 349 b 174 256 213 349 174 307 l 174 93 b 261 0 174 42 213 0 b 347 93 308 0 347 42 z m 88 0 b 0 -86 39 0 0 -39 b 88 -172 0 -133 39 -172 b 174 -86 135 -172 174 -133 b 88 0 174 -39 135 0 z m 608 349 b 521 256 560 349 521 307 l 521 93 b 608 0 521 42 560 0 b 694 93 656 0 694 42 l 694 256 b 608 349 694 307 656 349 z m 433 0 b 347 -86 386 0 347 -39 b 433 -172 347 -133 386 -172 b 521 -86 482 -172 521 -133 b 433 0 521 -39 482 0 z "},"∞":{"ha":1214,"x_min":0,"x_max":0,"o":"m 261 347 b 175 260 214 347 175 308 b 261 174 175 213 214 174 b 347 260 308 174 347 213 b 261 347 347 308 308 347 z m 88 521 b 0 435 40 521 0 482 b 88 347 0 386 40 347 b 175 435 136 347 175 386 b 88 521 175 482 136 521 z m 435 521 b 347 435 386 521 347 482 b 435 347 347 386 386 347 b 521 435 482 347 521 386 b 435 521 521 482 482 521 z m 261 521 b 347 608 308 521 347 560 b 261 694 347 656 308 694 b 175 608 214 694 175 656 b 261 521 175 560 214 521 z m 957 521 b 869 435 908 521 869 482 b 957 347 869 386 908 347 b 1043 435 1004 347 1043 386 b 957 521 1043 482 1004 521 z m 775 347 l 614 347 b 521 260 563 347 521 308 b 614 174 521 213 563 174 l 775 174 b 868 260 826 174 868 213 b 775 347 868 308 826 347 z m 775 694 l 614 694 b 521 608 563 694 521 656 b 614 521 521 560 563 521 l 775 521 b 868 608 826 521 868 560 b 775 694 868 656 826 694 z "},"–":{"ha":694,"x_min":0,"x_max":0,"o":"m 428 522 l 93 522 b 0 435 42 522 0 483 b 93 347 0 388 42 347 l 428 347 b 521 435 479 347 521 388 b 428 522 521 483 479 522 z "},"—":{"ha":868,"x_min":0,"x_max":0,"o":"m 603 522 l 93 522 b 0 435 42 522 0 483 b 93 347 0 388 42 347 l 603 347 b 694 435 653 347 694 388 b 603 522 694 483 653 522 z "},"’":{"ha":521,"x_min":0,"x_max":0,"o":"m 88 521 b 0 435 39 521 0 482 b 88 347 0 386 39 347 b 174 435 135 347 174 386 b 88 521 174 482 135 521 z m 260 868 b 174 775 213 868 174 826 l 174 614 b 260 521 174 563 213 521 b 347 614 308 521 347 563 l 347 775 b 260 868 347 826 308 868 z "},"”":{"ha":868,"x_min":0,"x_max":0,"o":"m 347 775 b 260 868 347 826 308 868 b 174 775 213 868 174 826 l 174 614 b 260 521 174 563 213 521 b 347 614 308 521 347 563 z m 88 521 b 0 435 39 521 0 482 b 88 347 0 386 39 347 b 174 435 135 347 174 386 b 88 521 174 482 135 521 z m 433 521 b 347 435 386 521 347 482 b 433 347 347 386 386 347 b 521 435 482 347 521 386 b 433 521 521 482 482 521 z m 608 868 b 521 775 560 868 521 826 l 521 614 b 608 521 521 563 560 521 b 694 614 656 521 694 563 l 694 775 b 608 868 694 826 656 868 z "},"‘":{"ha":521,"x_min":0,"x_max":0,"o":"m 174 775 b 86 868 174 826 135 868 b 0 775 39 868 0 826 l 0 614 b 86 521 0 563 39 521 b 174 614 135 521 174 563 z m 260 521 b 174 435 213 521 174 482 b 260 347 174 386 213 347 b 346 435 307 347 346 386 b 260 521 346 482 307 521 z "},"“":{"ha":868,"x_min":0,"x_max":0,"o":"m 174 776 b 86 868 174 826 135 868 b 0 776 39 868 0 826 l 0 615 b 86 522 0 564 39 522 b 174 615 135 522 174 564 z m 260 522 b 174 435 213 522 174 483 b 260 347 174 388 213 347 b 346 435 307 347 346 388 b 260 522 346 483 307 522 z m 521 776 b 433 868 521 826 482 868 b 346 776 386 868 346 826 l 346 615 b 433 522 346 564 386 522 b 521 615 482 522 521 564 z m 607 522 b 521 435 560 522 521 483 b 607 347 521 388 560 347 b 694 435 656 347 694 388 b 607 522 694 483 656 522 z "},"∫":{"ha":694,"x_min":0,"x_max":0,"o":"m 428 868 l 267 868 b 175 775 217 868 175 826 l 175 267 b 0 86 175 133 0 211 b 93 0 0 39 42 0 l 254 0 b 347 92 306 0 347 42 l 347 601 b 521 782 347 733 521 656 b 428 868 521 829 479 868 z "},"©":{"ha":1042,"x_min":0,"x_max":0,"o":"m 261 349 b 347 435 308 349 347 388 b 175 608 347 560 175 485 b 88 694 175 656 135 694 b 0 601 40 694 0 653 l 0 267 b 88 174 0 215 40 174 b 261 349 211 174 139 349 z m 261 694 b 435 522 383 694 310 522 b 608 694 557 522 485 694 b 696 782 656 694 696 733 b 603 869 696 829 654 869 l 268 869 b 175 782 217 869 175 829 b 261 694 175 733 214 694 z m 782 694 b 696 601 735 694 696 653 l 696 267 b 782 174 696 215 735 174 b 868 267 829 174 868 215 l 868 601 b 782 694 868 653 829 694 z m 608 174 b 435 349 485 174 557 349 b 261 174 310 349 383 174 b 175 88 214 174 175 135 b 268 0 175 39 217 0 l 603 0 b 696 88 654 0 696 39 b 608 174 696 135 656 174 z "},"®":{"ha":1042,"x_min":0,"x_max":0,"o":"m 175 601 b 88 694 175 653 136 694 b 0 601 40 694 0 653 l 0 267 b 88 174 0 215 40 174 b 175 267 136 174 175 215 z m 782 694 b 603 869 658 694 735 869 l 268 869 b 175 782 217 869 175 829 b 347 601 175 657 347 733 l 347 267 b 175 88 347 135 175 210 b 268 0 175 39 217 0 l 603 0 b 696 88 654 0 696 39 b 521 267 696 210 521 135 l 521 429 b 608 522 521 481 561 522 b 696 429 656 522 696 481 l 696 267 b 782 174 696 215 735 174 b 868 267 829 174 868 215 l 868 601 b 782 694 868 653 829 694 z "},"Œ":{"ha":1042,"x_min":0,"x_max":0,"o":"m 174 601 b 88 694 174 653 135 694 b 0 601 39 694 0 653 l 0 267 b 88 174 0 215 39 174 b 174 267 135 174 174 215 z m 428 174 l 267 174 b 174 86 215 174 174 135 b 267 0 174 39 215 0 l 428 0 b 521 86 479 0 521 39 b 428 174 521 135 479 174 z m 781 174 b 694 86 733 174 694 135 b 781 0 694 39 733 0 b 868 86 829 0 868 39 b 781 174 868 135 829 174 z m 781 522 b 694 608 733 522 694 561 b 868 782 694 731 868 657 b 775 868 868 829 826 868 l 267 868 b 174 782 215 868 174 829 b 267 694 174 733 215 694 l 428 694 b 521 601 479 694 521 653 l 521 267 b 608 174 521 215 560 174 b 781 347 731 174 658 347 b 868 435 829 347 868 388 b 781 522 868 483 829 522 z "},"Æ":{"ha":1042,"x_min":0,"x_max":0,"o":"m 781 175 b 694 88 733 175 694 136 b 781 0 694 40 733 0 b 867 88 828 0 867 40 b 781 175 867 136 828 175 z m 781 522 b 694 610 733 522 694 561 b 867 782 694 732 867 660 b 775 869 867 831 825 869 l 267 869 b 174 782 215 869 174 831 b 267 696 174 735 215 696 l 428 696 b 521 603 479 696 521 654 l 521 442 b 428 349 521 390 479 349 l 267 349 b 174 442 215 349 174 390 l 174 603 b 88 696 174 654 135 696 b 0 603 39 696 0 654 l 0 93 b 88 0 0 42 39 0 b 267 175 210 0 135 175 l 601 175 b 781 349 733 175 657 349 b 867 436 828 349 867 388 b 781 522 867 483 828 522 z "},"˝":{"ha":868,"x_min":0,"x_max":0,"o":"m 347 775 b 260 868 347 826 308 868 b 174 775 213 868 174 826 l 174 614 b 260 521 174 563 213 521 b 347 614 308 521 347 563 z m 88 521 b 0 435 39 521 0 482 b 88 347 0 386 39 347 b 174 435 135 347 174 386 b 88 521 174 482 135 521 z m 608 868 b 521 775 560 868 521 826 l 521 614 b 608 521 521 563 560 521 b 694 614 656 521 694 563 l 694 775 b 608 868 694 826 656 868 z m 433 521 b 347 435 386 521 347 482 b 433 347 347 386 386 347 b 521 435 482 347 521 386 b 433 521 521 482 482 521 z "},"ˇ":{"ha":868,"x_min":0,"x_max":0,"o":"m 263 1386 b 176 1300 215 1386 176 1347 b 263 1214 176 1253 215 1214 b 349 1300 310 1214 349 1253 b 263 1386 349 1347 310 1386 z m 610 1386 b 522 1300 561 1386 522 1347 b 610 1214 522 1253 561 1214 b 696 1300 657 1214 696 1253 b 610 1386 696 1347 657 1386 z m 436 1214 b 349 1126 388 1214 349 1175 b 436 1040 349 1079 388 1040 b 522 1126 483 1040 522 1079 b 436 1214 522 1175 483 1214 z "},"˜":{"ha":868,"x_min":0,"x_max":0,"o":"m 86 1042 b -1 954 38 1042 -1 1001 b 86 867 -1 906 38 867 b 172 954 133 867 172 906 b 86 1042 172 1001 133 1042 z m 260 1214 b 172 1128 211 1214 172 1175 b 260 1042 172 1079 211 1042 b 346 1128 307 1042 346 1079 b 260 1214 346 1175 307 1214 z m 607 1214 b 519 1128 558 1214 519 1175 b 607 1042 519 1079 558 1042 b 693 1128 654 1042 693 1079 b 607 1214 693 1175 654 1214 z m 432 1042 b 346 954 385 1042 346 1001 b 432 867 346 906 385 867 b 519 954 481 867 519 906 b 432 1042 519 1001 481 1042 z "},"æ":{"ha":1042,"x_min":0,"x_max":0,"o":"m 781 347 b 868 435 829 347 868 388 b 781 522 868 483 829 522 b 694 435 733 522 694 483 b 781 347 694 388 733 347 z m 608 347 b 521 435 560 347 521 388 b 694 608 521 560 694 485 b 601 694 694 656 653 694 l 93 694 b 0 601 42 694 0 653 l 0 267 b 88 174 0 215 39 174 b 174 267 135 174 174 215 l 174 429 b 260 522 174 481 213 522 b 347 429 308 522 347 481 l 347 267 b 174 86 347 135 174 211 b 267 0 174 39 215 0 l 428 0 b 608 174 561 0 483 174 b 694 261 656 174 694 213 b 608 347 694 308 656 347 z m 781 174 b 694 86 733 174 694 135 b 781 0 694 39 733 0 b 868 86 829 0 868 39 b 781 174 868 135 829 174 z "},"œ":{"ha":1042,"x_min":0,"x_max":0,"o":"m 174 431 b 86 522 174 481 133 522 b -1 431 38 522 -1 481 l -1 268 b 86 175 -1 217 38 175 b 174 268 133 175 174 217 z m 781 349 b 867 436 828 349 867 388 b 781 522 867 483 828 522 b 693 436 732 522 693 483 b 781 349 693 388 732 349 z m 607 349 b 519 436 558 349 519 388 b 693 610 519 558 693 485 b 601 696 693 657 651 696 l 265 696 b 174 610 215 696 174 657 b 346 431 174 485 346 561 l 346 268 b 174 88 346 135 174 213 b 265 0 174 40 215 0 l 426 0 b 607 175 558 0 482 175 b 693 261 654 175 693 214 b 607 349 693 310 654 349 z m 781 175 b 693 88 732 175 693 136 b 781 0 693 40 732 0 b 867 88 828 0 867 40 b 781 175 867 136 828 175 z "},"ß":{"ha":868,"x_min":0,"x_max":0,"o":"m 601 349 l 439 349 b 346 261 389 349 346 308 b 521 88 346 138 521 210 b 607 0 521 39 560 0 b 694 93 656 0 694 42 l 694 256 b 601 349 694 307 653 349 z m 260 694 b 433 522 382 694 310 522 b 521 615 482 522 521 564 l 521 776 b 428 869 521 828 479 869 l 267 869 b 174 782 215 869 174 829 b 260 694 174 733 213 694 z m 260 522 b 86 694 136 522 211 694 b 0 601 39 694 0 653 l 0 93 b 86 0 0 42 39 0 b 174 93 135 0 174 42 l 174 256 b 346 435 174 388 346 311 b 260 522 346 483 307 522 z "},"§":{"ha":868,"x_min":0,"x_max":0,"o":"m 88 694 b 260 522 210 694 138 522 b 439 694 385 522 308 694 l 601 694 b 694 782 653 694 694 733 b 601 869 694 829 653 869 l 93 869 b 0 782 42 869 0 829 b 88 694 0 733 39 694 z m 601 522 l 439 522 b 347 435 389 522 347 483 b 521 261 347 313 521 385 b 433 174 521 214 482 174 b 260 349 310 174 385 349 b 174 256 213 349 174 307 l 174 93 b 347 -86 174 -39 347 36 b 254 -172 347 -133 306 -172 l 93 -172 b 0 -260 42 -172 0 -212 b 93 -347 0 -307 42 -347 l 428 -347 b 521 -254 479 -347 521 -306 l 521 -93 b 694 93 521 39 694 -40 l 694 429 b 601 522 694 481 653 522 z "},"π":{"ha":1042,"x_min":0,"x_max":0,"o":"m 775 696 l 93 696 b 0 610 42 696 0 657 b 174 431 0 485 174 561 l 174 268 b 261 175 174 217 213 175 b 347 268 308 175 347 217 l 347 431 b 433 522 347 481 386 522 b 521 431 482 522 521 481 l 521 93 b 608 0 521 42 560 0 b 694 93 656 0 694 42 l 694 431 b 868 610 694 560 868 485 b 775 696 868 657 826 696 z "},"∏":{"ha":868,"x_min":0,"x_max":0,"o":"m 428 869 l 92 869 b 0 776 42 869 0 828 l 0 268 b 86 175 0 217 39 175 b 174 268 135 175 174 217 l 174 603 b 267 696 174 654 215 696 l 428 696 b 521 782 478 696 521 735 b 428 869 521 831 478 869 z m 607 696 b 521 603 560 696 521 654 l 521 93 b 607 0 521 42 560 0 b 694 93 656 0 694 42 l 694 603 b 607 696 694 654 656 696 z "},"≠":{"ha":1042,"x_min":0,"x_max":0,"o":"m 597 519 l 785 519 b 864 599 828 519 864 554 l 864 613 b 785 692 864 656 828 692 l 771 692 b 692 771 726 692 692 726 l 692 786 b 613 865 692 829 656 865 l 597 865 b 518 786 553 865 518 829 l 518 771 b 439 692 518 726 482 692 l 78 692 b -1 613 33 692 -1 656 l -1 599 b 78 519 -1 554 33 519 l 265 519 b 344 440 308 519 344 483 l 344 425 b 265 346 344 381 308 346 l 78 346 b -1 267 33 346 -1 310 l -1 251 b 78 172 -1 207 33 172 l 93 172 b 172 93 136 172 172 136 l 172 78 b 251 -1 172 33 207 -1 l 265 -1 b 344 78 308 -1 344 33 l 344 93 b 424 172 344 136 379 172 l 785 172 b 864 251 828 172 864 207 l 864 267 b 785 346 864 310 828 346 l 597 346 b 518 425 553 346 518 381 l 518 440 b 597 519 518 483 553 519 z "},"¸":{"ha":867,"x_min":0,"x_max":0,"o":"m 433 0 b 346 -87 385 0 346 -39 b 433 -174 346 -135 385 -174 b 519 -87 481 -174 519 -135 b 433 0 519 -39 481 0 z "},"∂":{"ha":868,"x_min":0,"x_max":0,"o":"m 603 869 l 267 869 b 175 782 217 869 175 831 b 267 696 175 735 217 696 l 428 696 b 521 610 479 696 521 657 b 428 522 521 561 479 522 l 93 522 b 0 431 42 522 0 481 l 0 93 b 93 0 0 42 42 0 l 603 0 b 696 93 654 0 696 42 l 696 776 b 603 869 696 828 654 869 z m 428 175 l 267 175 b 175 261 217 175 175 214 b 267 349 175 310 217 349 l 428 349 b 521 261 479 349 521 310 b 428 175 521 214 479 175 z "},"Ω":{"ha":1042,"x_min":0,"x_max":0,"o":"m 428 868 l 267 868 b 175 775 217 868 175 826 l 175 267 b 0 86 175 133 0 211 b 93 0 0 39 42 0 l 254 0 b 347 92 306 0 347 42 l 347 601 b 521 782 347 733 521 656 b 428 868 521 829 479 868 z m 782 174 b 694 267 733 174 694 215 l 694 601 b 608 694 694 653 656 694 b 521 601 560 694 521 653 l 521 92 b 614 0 521 42 563 0 l 775 0 b 868 86 826 0 868 39 b 782 174 868 135 829 174 z "},"ı":{"ha":521,"x_min":0,"x_max":0,"o":"m 253 694 l 93 694 b 0 608 42 694 0 656 b 86 522 0 561 39 522 b 174 429 135 522 174 479 l 174 92 b 260 0 174 42 213 0 b 346 92 307 0 346 42 l 346 601 b 253 694 346 653 304 694 z "},"≈":{"ha":868,"x_min":0,"x_max":0,"o":"m 439 347 l 601 347 b 694 435 653 347 694 388 b 601 522 694 483 653 522 l 439 522 b 347 435 389 522 347 483 b 439 347 347 388 389 347 z m 93 522 l 254 522 b 347 608 306 522 347 561 b 254 694 347 656 306 694 l 93 694 b 0 608 42 694 0 656 b 93 522 0 561 42 522 z m 601 174 l 439 174 b 347 86 389 174 347 135 b 439 0 347 39 389 0 l 601 0 b 694 86 653 0 694 39 b 601 174 694 135 653 174 z m 254 347 l 93 347 b 0 261 42 347 0 308 b 93 174 0 213 42 174 l 254 174 b 347 261 306 174 347 213 b 254 347 347 308 306 347 z "},"º":{"ha":868,"x_min":0,"x_max":0,"o":"m 428 867 l 92 867 b 0 774 42 867 0 825 l 0 613 b 86 519 0 561 39 519 b 260 693 211 519 136 693 b 346 607 307 693 346 654 b 174 433 346 482 174 556 b 267 346 174 385 215 346 l 428 346 b 521 439 478 346 521 388 l 521 774 b 428 867 521 825 478 867 z "},"ª":{"ha":694,"x_min":0,"x_max":0,"o":"m 428 868 l 268 868 b 175 781 217 868 175 829 b 347 608 175 658 347 731 b 175 435 347 483 175 557 b 268 347 175 386 217 347 l 428 347 b 521 440 479 347 521 389 l 521 775 b 428 868 521 826 479 868 z m 88 694 b 0 608 40 694 0 656 b 88 521 0 560 40 521 b 175 608 135 521 175 560 b 88 694 175 656 135 694 z "},"√":{"ha":868,"x_min":0,"x_max":0,"o":"m 433 174 b 346 86 386 174 346 135 b 433 0 346 39 386 0 b 521 86 482 0 521 39 b 433 174 521 135 482 174 z m 346 429 b 254 522 346 481 304 522 l 93 522 b 0 435 42 522 0 483 b 174 261 0 311 174 383 b 260 174 174 213 213 174 b 346 267 307 174 346 215 z m 607 868 b 521 776 560 868 521 826 l 521 267 b 607 174 521 215 560 174 b 694 267 656 174 694 215 l 694 776 b 607 868 694 826 656 868 z "},"¬":{"ha":868,"x_min":0,"x_max":0,"o":"m 603 694 l 93 694 b 0 608 42 694 0 656 b 93 522 0 561 42 522 l 428 522 b 521 435 479 522 521 483 b 608 347 521 388 560 347 b 694 440 656 347 694 390 l 694 601 b 603 694 694 653 653 694 z "},"ﬁ":{"ha":868,"x_min":0,"x_max":0,"o":"m 260 694 b 86 522 136 694 211 522 b 0 436 39 522 0 483 b 174 256 0 310 174 388 l 174 93 b 260 0 174 42 213 0 b 346 93 307 0 346 42 l 346 603 b 260 694 346 653 307 694 z m 694 782 b 601 869 694 831 653 869 l 439 869 b 346 782 388 869 346 831 b 439 694 346 735 388 694 l 601 694 b 694 782 653 694 694 735 z m 607 522 b 521 429 560 522 521 481 l 521 93 b 607 0 521 42 560 0 b 694 93 656 0 694 42 l 694 429 b 607 522 694 481 656 522 z "},"ﬂ":{"ha":868,"x_min":0,"x_max":0,"o":"m 261 694 b 88 522 139 694 211 522 b 0 436 40 522 0 483 b 175 256 0 311 175 388 l 175 93 b 261 0 175 42 214 0 b 347 93 308 0 347 42 l 347 603 b 261 694 347 653 308 694 z m 608 694 b 521 603 560 694 521 653 l 521 93 b 608 0 521 42 560 0 b 696 93 656 0 696 42 l 696 603 b 608 694 696 653 656 694 z m 435 869 b 347 782 386 869 347 831 b 435 694 347 735 386 694 b 521 782 482 694 521 735 b 435 869 521 831 482 869 z "}}}
